<svg id="svg" version="1.1" xmlns="http://www.w3.org/2000/svg" xmlns:xlink="http://www.w3.org/1999/xlink" width="400" height="216.12713360800473" viewBox="0, 0, 400,216.12713360800473"><g id="svgg"><path id="path0" d="M54.486 107.456 L 54.486 177.975 76.162 177.882 C 102.207 177.771,103.312 177.687,110.823 175.245 C 129.717 169.103,141.129 151.037,138.293 131.757 C 136.210 117.596,127.394 107.747,111.592 101.928 C 109.575 101.185,109.388 101.072,109.754 100.816 C 109.979 100.659,111.184 99.865,112.432 99.052 C 125.156 90.767,130.404 75.468,125.607 60.644 C 122.174 50.035,113.688 42.019,102.933 39.224 C 95.604 37.320,93.201 37.147,72.595 37.035 L 54.486 36.937 54.486 107.456 M167.135 107.459 L 167.135 177.946 186.541 177.945 C 205.846 177.944,210.955 177.806,215.351 177.169 C 237.658 173.936,253.041 155.678,251.272 134.538 C 249.973 119.022,240.694 107.778,224.419 101.997 C 221.835 101.080,221.814 101.171,225.091 99.060 C 247.977 84.318,243.650 48.808,217.884 39.915 C 210.888 37.500,204.634 36.975,182.865 36.974 L 167.135 36.973 167.135 107.459 M88.216 50.812 C 97.755 51.393,103.690 53.585,107.849 58.061 C 116.980 67.889,112.948 85.669,100.132 92.094 C 94.513 94.910,85.933 96.136,73.081 95.959 L 68.216 95.892 68.161 73.514 C 68.130 61.205,68.151 51.014,68.208 50.865 C 68.335 50.531,82.974 50.493,88.216 50.812 M204.973 51.126 C 218.132 52.963,224.901 59.428,225.242 70.486 C 225.441 76.943,223.789 81.850,219.865 86.458 C 213.732 93.660,204.576 96.216,185.838 95.960 L 180.865 95.892 180.809 73.514 C 180.779 61.205,180.805 51.001,180.867 50.837 C 181.038 50.388,201.442 50.633,204.973 51.126 M92.649 110.580 C 99.552 111.206,102.603 111.868,107.139 113.720 C 124.812 120.939,129.728 141.542,117.004 155.067 C 112.902 159.427,107.642 162.031,100.757 163.108 C 95.629 163.911,93.644 164.000,80.865 164.000 L 68.216 164.000 68.161 137.297 C 68.130 122.611,68.157 110.459,68.220 110.293 C 68.380 109.874,87.321 110.096,92.649 110.580 M205.405 110.584 C 217.037 111.633,224.240 114.593,230.018 120.698 C 243.109 134.529,236.208 157.278,217.403 162.287 C 212.053 163.712,206.638 164.106,192.378 164.107 L 180.757 164.108 180.757 137.050 L 180.757 109.992 191.189 110.117 C 197.944 110.198,202.955 110.363,205.405 110.584 " stroke="none" fill="#fcfbfb" fill-rule="evenodd"></path><path id="path1" d="M36.216 3.560 C 33.214 4.112,28.767 6.041,27.036 7.543 C 26.678 7.854,26.007 8.385,25.545 8.723 C 23.172 10.460,18.811 16.707,18.811 18.369 C 18.811 18.559,18.670 18.915,18.499 19.160 C 17.351 20.799,17.428 14.739,17.358 108.919 L 17.294 195.459 10.377 195.459 L 3.459 195.459 3.459 204.000 L 3.459 212.541 200.108 212.541 L 396.757 212.541 396.757 204.000 L 396.757 195.459 372.865 195.459 L 348.973 195.459 348.973 109.758 C 348.973 34.704,348.933 23.832,348.650 22.245 C 346.985 12.900,339.499 5.368,330.086 3.567 C 327.727 3.116,38.672 3.109,36.216 3.560 M88.108 36.978 C 95.722 37.358,99.931 38.029,104.949 39.664 C 120.624 44.770,129.832 60.607,126.955 77.514 C 125.453 86.342,120.160 94.439,112.865 99.067 C 112.211 99.482,111.244 100.095,110.716 100.428 L 109.756 101.034 111.364 101.623 C 129.871 108.399,139.761 121.808,138.956 139.034 C 137.996 159.577,123.684 174.218,101.189 177.671 C 98.070 178.149,54.533 178.367,54.240 177.905 C 54.037 177.584,53.982 37.628,54.185 37.099 C 54.343 36.688,80.435 36.596,88.108 36.978 M200.757 36.978 C 216.869 37.782,226.336 41.689,232.938 50.257 C 245.400 66.429,241.603 88.792,224.541 99.709 L 222.447 101.049 224.034 101.630 C 243.892 108.904,253.501 123.370,251.263 142.621 C 249.363 158.967,236.534 172.816,219.945 176.428 C 218.786 176.681,217.482 176.980,217.048 177.094 C 213.694 177.976,212.562 178.017,189.351 178.104 L 166.919 178.188 166.919 107.472 L 166.919 36.757 181.676 36.760 C 189.792 36.761,198.378 36.860,200.757 36.978 M68.324 73.440 L 68.324 95.854 75.758 95.712 C 91.123 95.418,96.425 94.386,102.330 90.536 C 114.253 82.764,116.085 64.612,105.775 56.392 C 100.337 52.056,95.156 51.032,78.649 51.029 L 68.324 51.027 68.324 73.440 M180.973 73.389 L 180.973 95.784 184.919 95.778 C 197.721 95.761,205.409 94.911,210.430 92.958 C 227.999 86.126,230.640 61.603,214.621 54.047 C 209.296 51.535,206.795 51.200,192.486 51.086 L 180.973 50.994 180.973 73.389 M68.324 137.073 L 68.324 163.931 81.784 163.830 C 100.338 163.690,105.198 162.944,111.394 159.282 C 127.132 149.983,128.166 128.026,113.365 117.416 C 105.802 111.994,98.808 110.549,79.081 110.333 L 68.324 110.216 68.324 137.073 M180.973 137.054 L 180.973 163.892 192.486 163.891 C 211.363 163.890,217.207 163.087,223.384 159.648 C 239.510 150.670,241.155 128.700,226.518 117.799 C 218.739 112.007,211.974 110.555,191.730 110.333 L 180.973 110.216 180.973 137.054 " stroke="none" fill="#fc8c2c" fill-rule="evenodd"></path><path id="path2" d="M62.000 36.919 C 66.311 36.952,73.365 36.952,77.676 36.919 C 81.986 36.886,78.459 36.859,69.838 36.859 C 61.216 36.859,57.689 36.886,62.000 36.919 M174.649 36.919 C 178.959 36.952,186.014 36.952,190.324 36.919 C 194.635 36.886,191.108 36.859,182.486 36.859 C 173.865 36.859,170.338 36.886,174.649 36.919 M54.161 107.459 C 54.161 146.168,54.186 162.003,54.216 142.649 C 54.247 123.295,54.247 91.624,54.216 72.270 C 54.186 52.916,54.161 68.751,54.161 107.459 M116.757 46.595 C 117.160 47.011,117.539 47.351,117.598 47.351 C 117.658 47.351,117.376 47.011,116.973 46.595 C 116.570 46.178,116.191 45.838,116.131 45.838 C 116.072 45.838,116.353 46.178,116.757 46.595 M228.757 45.905 C 228.757 45.943,229.073 46.259,229.459 46.608 L 230.162 47.243 229.527 46.541 C 228.935 45.886,228.757 45.738,228.757 45.905 M118.486 48.324 C 118.890 48.741,119.269 49.081,119.328 49.081 C 119.388 49.081,119.106 48.741,118.703 48.324 C 118.299 47.908,117.921 47.568,117.861 47.568 C 117.802 47.568,118.083 47.908,118.486 48.324 M231.351 48.541 C 231.755 48.957,232.133 49.297,232.193 49.297 C 232.252 49.297,231.971 48.957,231.568 48.541 C 231.164 48.124,230.785 47.784,230.726 47.784 C 230.667 47.784,230.948 48.124,231.351 48.541 M73.474 50.973 C 76.366 51.007,81.037 51.007,83.853 50.973 C 86.669 50.939,84.303 50.911,78.595 50.911 C 72.886 50.911,70.582 50.939,73.474 50.973 M186.123 50.973 C 189.015 51.007,193.685 51.007,196.501 50.973 C 199.318 50.939,196.951 50.911,191.243 50.911 C 185.535 50.911,183.231 50.939,186.123 50.973 M90.000 51.176 C 90.208 51.230,90.549 51.230,90.757 51.176 C 90.965 51.122,90.795 51.077,90.378 51.077 C 89.962 51.077,89.792 51.122,90.000 51.176 M202.543 51.180 C 202.812 51.232,203.201 51.230,203.408 51.176 C 203.615 51.121,203.395 51.079,202.919 51.082 C 202.443 51.084,202.274 51.128,202.543 51.180 M112.508 71.351 C 112.508 72.362,112.545 72.776,112.591 72.270 C 112.636 71.765,112.636 70.938,112.591 70.432 C 112.545 69.927,112.508 70.341,112.508 71.351 M110.162 81.514 C 109.861 82.108,109.663 82.595,109.722 82.595 C 109.782 82.595,110.077 82.108,110.378 81.514 C 110.680 80.919,110.878 80.432,110.818 80.432 C 110.759 80.432,110.463 80.919,110.162 81.514 M217.176 88.919 L 216.541 89.622 217.243 88.987 C 217.630 88.637,217.946 88.321,217.946 88.284 C 217.946 88.117,217.768 88.264,217.176 88.919 M116.851 95.838 L 116.216 96.541 116.919 95.905 C 117.305 95.556,117.622 95.240,117.622 95.203 C 117.622 95.036,117.443 95.183,116.851 95.838 M229.178 96.162 L 228.432 96.973 229.243 96.228 C 229.689 95.818,230.054 95.453,230.054 95.417 C 230.054 95.252,229.871 95.407,229.178 96.162 M78.865 95.724 C 79.251 95.772,79.884 95.772,80.270 95.724 C 80.657 95.676,80.341 95.637,79.568 95.637 C 78.795 95.637,78.478 95.676,78.865 95.724 M191.405 95.725 C 191.851 95.772,192.581 95.772,193.027 95.725 C 193.473 95.678,193.108 95.640,192.216 95.640 C 191.324 95.640,190.959 95.678,191.405 95.725 M126.919 110.378 C 127.322 110.795,127.701 111.135,127.761 111.135 C 127.820 111.135,127.539 110.795,127.135 110.378 C 126.732 109.962,126.353 109.622,126.294 109.622 C 126.234 109.622,126.516 109.962,126.919 110.378 M86.651 110.423 C 86.920 110.475,87.309 110.473,87.516 110.419 C 87.723 110.365,87.503 110.322,87.027 110.325 C 86.551 110.327,86.382 110.371,86.651 110.423 M199.300 110.423 C 199.569 110.475,199.958 110.473,200.165 110.419 C 200.371 110.365,200.151 110.322,199.676 110.325 C 199.200 110.327,199.031 110.371,199.300 110.423 M229.297 120.216 C 229.762 120.692,230.190 121.081,230.250 121.081 C 230.309 121.081,229.978 120.692,229.514 120.216 C 229.049 119.741,228.620 119.351,228.561 119.351 C 228.501 119.351,228.833 119.741,229.297 120.216 M138.656 133.730 C 138.658 134.324,138.700 134.542,138.750 134.213 C 138.799 133.885,138.798 133.398,138.747 133.132 C 138.695 132.866,138.655 133.135,138.656 133.730 M138.894 137.514 C 138.894 139.000,138.929 139.608,138.971 138.865 C 139.013 138.122,139.013 136.905,138.971 136.162 C 138.929 135.419,138.894 136.027,138.894 137.514 M123.961 137.730 C 123.961 138.503,124.000 138.819,124.048 138.432 C 124.096 138.046,124.096 137.414,124.048 137.027 C 124.000 136.641,123.961 136.957,123.961 137.730 M236.610 137.730 C 236.610 138.503,236.649 138.819,236.697 138.432 C 236.745 138.046,236.745 137.414,236.697 137.027 C 236.649 136.641,236.610 136.957,236.610 137.730 M138.656 141.514 C 138.658 142.108,138.700 142.326,138.750 141.997 C 138.799 141.668,138.798 141.182,138.747 140.916 C 138.695 140.650,138.655 140.919,138.656 141.514 M127.784 164.865 C 127.259 165.400,126.878 165.838,126.937 165.838 C 126.996 165.838,127.475 165.400,128.000 164.865 C 128.525 164.330,128.906 163.892,128.847 163.892 C 128.787 163.892,128.309 164.330,127.784 164.865 M239.886 165.459 L 238.378 167.027 239.946 165.519 C 241.402 164.119,241.612 163.892,241.454 163.892 C 241.421 163.892,240.715 164.597,239.886 165.459 M100.273 177.666 C 100.542 177.718,100.931 177.716,101.138 177.662 C 101.344 177.608,101.124 177.566,100.649 177.568 C 100.173 177.570,100.004 177.615,100.273 177.666 M212.921 177.666 C 213.190 177.718,213.580 177.716,213.786 177.662 C 213.993 177.608,213.773 177.566,213.297 177.568 C 212.822 177.570,212.652 177.615,212.921 177.666 M98.432 177.879 C 98.641 177.933,98.981 177.933,99.189 177.879 C 99.397 177.824,99.227 177.780,98.811 177.780 C 98.395 177.780,98.224 177.824,98.432 177.879 M211.192 177.883 C 211.461 177.934,211.850 177.932,212.057 177.878 C 212.263 177.824,212.043 177.782,211.568 177.784 C 211.092 177.787,210.923 177.831,211.192 177.883 M64.703 178.108 C 70.500 178.140,79.986 178.140,85.784 178.108 C 91.581 178.076,86.838 178.050,75.243 178.050 C 63.649 178.050,58.905 178.076,64.703 178.108 M177.335 178.108 C 183.123 178.140,192.658 178.140,198.524 178.108 C 204.390 178.076,199.654 178.050,188.000 178.050 C 176.346 178.050,171.547 178.076,177.335 178.108 " stroke="none" fill="#fcac7b" fill-rule="evenodd"></path><path id="path3" d="M240.077 71.459 C 240.076 72.530,240.113 72.995,240.158 72.493 C 240.203 71.991,240.204 71.116,240.159 70.547 C 240.115 69.979,240.077 70.389,240.077 71.459 M81.135 95.717 C 81.343 95.771,81.684 95.771,81.892 95.717 C 82.100 95.662,81.930 95.618,81.514 95.618 C 81.097 95.618,80.927 95.662,81.135 95.717 M194.000 95.717 C 194.208 95.771,194.549 95.771,194.757 95.717 C 194.965 95.662,194.795 95.618,194.378 95.618 C 193.962 95.618,193.792 95.662,194.000 95.717 M71.743 110.216 C 73.683 110.252,76.797 110.252,78.662 110.216 C 80.528 110.180,78.941 110.150,75.135 110.151 C 71.330 110.151,69.803 110.180,71.743 110.216 M184.486 110.216 C 186.359 110.252,189.424 110.252,191.297 110.216 C 193.170 110.180,191.638 110.150,187.892 110.150 C 184.146 110.150,182.614 110.180,184.486 110.216 M116.419 155.514 L 115.784 156.216 116.486 155.581 C 116.873 155.232,117.189 154.916,117.189 154.878 C 117.189 154.711,117.011 154.858,116.419 155.514 M229.067 155.514 L 228.432 156.216 229.135 155.581 C 229.790 154.989,229.937 154.811,229.770 154.811 C 229.733 154.811,229.417 155.127,229.067 155.514 M73.568 164.054 C 76.511 164.088,81.327 164.088,84.270 164.054 C 87.214 164.020,84.805 163.992,78.919 163.992 C 73.032 163.992,70.624 164.020,73.568 164.054 M186.216 164.054 C 189.159 164.088,193.976 164.088,196.919 164.054 C 199.862 164.020,197.454 163.992,191.568 163.992 C 185.681 163.992,183.273 164.020,186.216 164.054 " stroke="none" fill="#fcbc94" fill-rule="evenodd"></path><path id="path4" d="M54.377 107.351 C 54.377 146.119,54.402 161.946,54.432 142.523 C 54.463 123.100,54.463 91.381,54.432 72.037 C 54.402 52.692,54.377 68.584,54.377 107.351 M87.841 37.128 C 88.169 37.178,88.656 37.176,88.922 37.125 C 89.188 37.074,88.919 37.033,88.324 37.035 C 87.730 37.036,87.512 37.078,87.841 37.128 M167.026 107.459 C 167.026 146.286,167.051 162.170,167.081 142.757 C 167.112 123.343,167.112 91.576,167.081 72.162 C 167.051 52.749,167.026 68.632,167.026 107.459 M200.486 37.128 C 200.814 37.177,201.349 37.177,201.676 37.128 C 202.003 37.078,201.735 37.038,201.081 37.038 C 200.427 37.038,200.159 37.078,200.486 37.128 M231.135 48.500 C 231.135 48.537,231.451 48.854,231.838 49.203 L 232.541 49.838 231.905 49.135 C 231.314 48.480,231.135 48.333,231.135 48.500 M68.208 50.865 C 68.151 51.014,68.130 61.205,68.161 73.514 L 68.216 95.892 74.270 95.897 L 80.324 95.902 74.324 95.840 L 68.324 95.777 68.324 73.296 L 68.324 50.816 77.243 50.757 L 86.162 50.698 77.236 50.646 C 70.257 50.606,68.288 50.654,68.208 50.865 M180.856 50.865 C 180.800 51.014,180.779 61.205,180.809 73.514 L 180.865 95.892 187.027 95.897 L 193.189 95.902 187.081 95.839 L 180.973 95.777 180.973 73.296 L 180.973 50.816 189.892 50.757 L 198.811 50.698 189.885 50.646 C 182.905 50.606,180.937 50.654,180.856 50.865 M89.351 50.960 C 89.559 51.014,89.900 51.014,90.108 50.960 C 90.316 50.905,90.146 50.861,89.730 50.861 C 89.314 50.861,89.143 50.905,89.351 50.960 M201.894 50.964 C 202.163 51.015,202.553 51.013,202.759 50.959 C 202.966 50.905,202.746 50.863,202.270 50.865 C 201.795 50.868,201.625 50.912,201.894 50.964 M102.270 53.935 C 102.270 53.994,102.562 54.194,102.919 54.378 C 103.276 54.563,103.568 54.665,103.568 54.606 C 103.568 54.546,103.276 54.347,102.919 54.162 C 102.562 53.978,102.270 53.875,102.270 53.935 M239.838 68.649 C 239.841 69.124,239.885 69.293,239.937 69.025 C 239.988 68.756,239.986 68.366,239.932 68.160 C 239.878 67.953,239.836 68.173,239.838 68.649 M112.720 71.459 C 112.721 72.292,112.760 72.606,112.806 72.157 C 112.853 71.709,112.852 71.028,112.805 70.644 C 112.757 70.260,112.719 70.627,112.720 71.459 M239.838 74.270 C 239.841 74.746,239.885 74.915,239.937 74.646 C 239.988 74.377,239.986 73.988,239.932 73.781 C 239.878 73.575,239.836 73.795,239.838 74.270 M105.940 87.730 L 104.541 89.189 106.000 87.790 C 106.803 87.020,107.459 86.364,107.459 86.331 C 107.459 86.171,107.239 86.374,105.940 87.730 M218.371 87.946 L 217.189 89.189 218.432 88.007 C 219.587 86.909,219.775 86.703,219.614 86.703 C 219.580 86.703,219.021 87.262,218.371 87.946 M82.649 95.722 C 82.976 95.772,83.511 95.772,83.838 95.722 C 84.165 95.673,83.897 95.632,83.243 95.632 C 82.589 95.632,82.322 95.673,82.649 95.722 M195.516 95.723 C 195.845 95.772,196.332 95.771,196.598 95.720 C 196.863 95.668,196.595 95.628,196.000 95.629 C 195.405 95.631,195.188 95.673,195.516 95.723 M82.541 110.210 C 82.927 110.258,83.559 110.258,83.946 110.210 C 84.332 110.163,84.016 110.123,83.243 110.123 C 82.470 110.123,82.154 110.163,82.541 110.210 M180.809 137.135 C 180.837 152.030,180.886 159.838,180.916 154.486 C 181.065 128.795,181.066 110.054,180.919 110.054 C 180.830 110.054,180.780 122.241,180.809 137.135 M195.189 110.210 C 195.576 110.258,196.208 110.258,196.595 110.210 C 196.981 110.163,196.665 110.123,195.892 110.123 C 195.119 110.123,194.803 110.163,195.189 110.210 M68.213 137.081 C 68.213 151.886,68.239 157.943,68.270 150.541 C 68.302 143.138,68.302 131.024,68.270 123.622 C 68.239 116.219,68.213 122.276,68.213 137.081 M88.489 110.425 C 88.818 110.475,89.305 110.474,89.571 110.422 C 89.836 110.371,89.568 110.330,88.973 110.332 C 88.378 110.334,88.161 110.376,88.489 110.425 M200.919 110.425 C 201.246 110.475,201.781 110.475,202.108 110.425 C 202.435 110.376,202.168 110.335,201.514 110.335 C 200.859 110.335,200.592 110.376,200.919 110.425 M240.432 111.203 C 240.432 111.240,240.749 111.556,241.135 111.905 L 241.838 112.541 241.203 111.838 C 240.611 111.183,240.432 111.036,240.432 111.203 M251.298 134.811 C 251.300 135.286,251.344 135.456,251.396 135.187 C 251.448 134.918,251.446 134.529,251.392 134.322 C 251.338 134.115,251.295 134.335,251.298 134.811 M236.591 135.135 C 236.591 135.551,236.635 135.722,236.690 135.514 C 236.744 135.305,236.744 134.965,236.690 134.757 C 236.635 134.549,236.591 134.719,236.591 135.135 M138.679 137.514 C 138.679 139.119,138.713 139.776,138.755 138.973 C 138.797 138.170,138.797 136.857,138.755 136.054 C 138.713 135.251,138.679 135.908,138.679 137.514 M251.298 140.216 C 251.300 140.692,251.344 140.861,251.396 140.592 C 251.448 140.323,251.446 139.934,251.392 139.727 C 251.338 139.520,251.295 139.741,251.298 140.216 M128.216 164.216 C 127.691 164.751,127.310 165.189,127.369 165.189 C 127.429 165.189,127.907 164.751,128.432 164.216 C 128.958 163.681,129.339 163.243,129.279 163.243 C 129.220 163.243,128.741 163.681,128.216 164.216 M94.003 163.829 C 94.271 163.880,94.661 163.878,94.867 163.824 C 95.074 163.770,94.854 163.728,94.378 163.730 C 93.903 163.733,93.734 163.777,94.003 163.829 M206.651 163.829 C 206.920 163.880,207.309 163.878,207.516 163.824 C 207.723 163.770,207.503 163.728,207.027 163.730 C 206.551 163.733,206.382 163.777,206.651 163.829 M239.886 165.243 L 238.378 166.811 239.946 165.303 C 241.402 163.903,241.612 163.676,241.454 163.676 C 241.421 163.676,240.715 164.381,239.886 165.243 M90.103 164.048 C 90.487 164.096,91.168 164.096,91.617 164.050 C 92.065 164.003,91.751 163.964,90.919 163.963 C 90.086 163.962,89.719 164.000,90.103 164.048 M202.752 164.048 C 203.136 164.096,203.817 164.096,204.265 164.050 C 204.714 164.003,204.400 163.964,203.568 163.963 C 202.735 163.962,202.368 164.000,202.752 164.048 M98.649 177.663 C 98.857 177.717,99.197 177.717,99.405 177.663 C 99.614 177.608,99.443 177.564,99.027 177.564 C 98.611 177.564,98.441 177.608,98.649 177.663 M95.297 177.886 C 95.684 177.934,96.316 177.934,96.703 177.886 C 97.089 177.838,96.773 177.799,96.000 177.799 C 95.227 177.799,94.911 177.838,95.297 177.886 M207.946 177.886 C 208.332 177.934,208.965 177.934,209.351 177.886 C 209.738 177.838,209.422 177.799,208.649 177.799 C 207.876 177.799,207.559 177.838,207.946 177.886 " stroke="none" fill="#fcc4a4" fill-rule="evenodd"></path></g></svg>