<svg id="svg" version="1.1" xmlns="http://www.w3.org/2000/svg" xmlns:xlink="http://www.w3.org/1999/xlink" width="400" height="216" viewBox="0, 0, 400,216"><g id="svgg"><path id="path0" d="M40.921 7.886 C 40.853 8.064,40.721 8.162,40.627 8.104 C 40.533 8.046,40.399 8.147,40.329 8.330 C 40.241 8.557,39.945 8.650,39.387 8.626 C 38.940 8.606,38.388 8.667,38.160 8.761 C 37.846 8.892,37.789 8.864,37.923 8.647 C 38.045 8.451,38.017 8.412,37.836 8.524 C 37.691 8.614,37.624 8.824,37.688 8.990 C 37.793 9.264,37.122 9.435,36.437 9.308 C 36.332 9.288,36.040 9.464,35.789 9.697 C 35.538 9.931,35.041 10.154,34.684 10.193 C 34.308 10.235,34.058 10.378,34.090 10.535 C 34.136 10.769,33.735 10.908,33.233 10.833 C 33.148 10.820,32.840 11.048,32.549 11.339 C 32.225 11.663,31.846 11.834,31.569 11.781 C 31.321 11.733,31.118 11.779,31.118 11.882 C 31.118 11.986,30.948 12.241,30.740 12.449 C 30.532 12.657,30.362 12.931,30.361 13.059 C 30.361 13.186,30.191 13.291,29.984 13.292 C 29.777 13.294,29.361 13.658,29.059 14.103 C 28.757 14.547,28.367 14.911,28.193 14.911 C 28.019 14.911,27.877 15.053,27.877 15.227 C 27.877 15.590,27.144 16.051,26.921 15.828 C 26.840 15.747,26.834 15.838,26.908 16.030 C 26.989 16.242,26.859 16.549,26.579 16.810 C 26.325 17.047,26.086 17.422,26.050 17.643 C 26.013 17.864,25.886 18.024,25.767 17.999 C 25.648 17.974,25.369 18.161,25.147 18.414 C 24.925 18.668,24.865 18.804,25.014 18.717 C 25.162 18.630,25.284 18.662,25.284 18.788 C 25.284 18.914,25.127 19.017,24.936 19.017 C 24.725 19.017,24.635 19.137,24.707 19.324 C 24.772 19.493,24.612 19.860,24.352 20.141 C 24.092 20.422,23.866 20.794,23.850 20.969 C 23.788 21.646,23.492 22.258,23.227 22.258 C 23.052 22.258,22.950 22.549,22.950 23.048 C 22.950 23.556,22.823 23.909,22.595 24.036 C 22.357 24.169,22.286 24.382,22.380 24.678 C 22.462 24.935,22.435 25.069,22.316 24.995 C 22.120 24.874,21.965 26.026,22.006 27.290 C 22.017 27.625,21.934 27.835,21.818 27.764 C 21.615 27.638,21.523 27.928,21.594 28.471 C 21.613 28.620,21.549 28.741,21.452 28.741 C 21.189 28.741,21.406 30.552,21.690 30.737 C 21.844 30.837,21.794 30.897,21.554 30.899 C 21.193 30.902,21.178 34.745,21.230 111.408 L 21.286 191.914 14.985 191.851 C 11.519 191.817,8.797 191.860,8.934 191.947 C 9.114 192.061,9.105 192.107,8.901 192.109 C 8.746 192.111,8.679 192.210,8.752 192.328 C 8.825 192.447,8.779 192.545,8.649 192.545 C 8.400 192.545,8.412 208.809,8.662 209.058 C 8.944 209.339,391.215 209.196,391.398 208.915 C 391.982 208.019,391.502 191.823,390.901 192.168 C 390.851 192.197,390.919 192.123,391.051 192.004 C 391.211 191.860,383.606 191.807,368.201 191.845 L 345.112 191.902 345.039 109.403 C 344.998 64.029,344.942 26.807,344.913 26.688 C 344.884 26.569,344.908 26.266,344.968 26.013 C 345.046 25.680,344.977 25.561,344.718 25.581 C 344.466 25.600,344.351 25.417,344.327 24.959 C 344.308 24.603,344.282 24.148,344.270 23.948 C 344.257 23.749,344.091 23.430,343.901 23.241 C 343.711 23.051,343.611 22.752,343.678 22.577 C 343.746 22.402,343.705 22.258,343.588 22.258 C 343.471 22.258,343.426 21.972,343.488 21.623 C 343.549 21.274,343.503 20.928,343.385 20.856 C 343.259 20.778,343.222 20.884,343.294 21.112 C 343.404 21.460,343.381 21.457,343.075 21.082 C 342.887 20.852,342.734 20.509,342.734 20.320 C 342.734 20.131,342.539 19.836,342.301 19.665 C 342.064 19.494,341.869 19.190,341.869 18.991 C 341.869 18.791,341.516 18.274,341.084 17.843 C 340.652 17.411,340.351 17.006,340.414 16.942 C 340.478 16.879,340.248 16.538,339.903 16.185 C 339.558 15.833,339.275 15.426,339.273 15.282 C 339.271 15.116,339.192 15.139,339.060 15.343 C 338.852 15.665,338.759 15.399,338.783 14.550 C 338.787 14.410,338.642 14.354,338.457 14.424 C 338.241 14.508,338.179 14.465,338.279 14.302 C 338.380 14.139,338.318 14.096,338.102 14.179 C 337.880 14.264,337.702 14.128,337.566 13.772 C 337.415 13.375,337.227 13.253,336.833 13.296 C 336.406 13.343,336.324 13.274,336.410 12.944 C 336.490 12.636,336.403 12.534,336.060 12.534 C 335.742 12.534,335.602 12.398,335.602 12.089 C 335.602 11.844,335.509 11.702,335.395 11.772 C 335.139 11.930,334.306 11.433,334.306 11.123 C 334.306 10.998,334.038 10.900,333.712 10.905 C 333.358 10.910,333.138 10.807,333.169 10.651 C 333.198 10.499,333.084 10.440,332.899 10.512 C 332.722 10.580,332.577 10.527,332.577 10.396 C 332.577 10.264,332.285 10.157,331.929 10.157 C 331.572 10.157,331.280 10.054,331.280 9.929 C 331.280 9.704,330.024 9.155,329.714 9.245 C 329.625 9.271,329.552 9.171,329.552 9.022 C 329.552 8.874,329.284 8.736,328.957 8.716 C 327.103 8.604,326.744 8.528,326.628 8.226 C 326.518 7.940,326.478 7.939,326.302 8.218 C 326.131 8.488,326.100 8.482,326.097 8.177 C 326.095 7.923,325.936 7.835,325.554 7.877 C 325.257 7.910,325.012 7.828,325.010 7.696 C 325.008 7.539,324.952 7.532,324.848 7.674 C 324.761 7.794,324.300 7.875,323.825 7.854 C 318.871 7.631,41.590 7.823,41.311 8.049 C 41.031 8.277,41.000 8.260,41.120 7.942 C 41.198 7.734,41.213 7.563,41.153 7.563 C 41.094 7.563,40.990 7.709,40.921 7.886 M184.117 40.303 C 184.265 40.481,184.507 40.627,184.654 40.627 C 184.802 40.627,185.155 40.808,185.438 41.029 C 185.722 41.251,186.192 41.506,186.484 41.598 C 186.775 41.689,187.147 41.897,187.310 42.060 C 187.472 42.222,187.753 42.355,187.934 42.355 C 188.115 42.355,188.510 42.550,188.812 42.788 C 189.114 43.025,189.546 43.220,189.771 43.220 C 189.997 43.220,190.235 43.360,190.300 43.531 C 190.366 43.702,190.702 43.904,191.047 43.980 C 191.393 44.055,191.732 44.209,191.801 44.320 C 191.869 44.432,192.235 44.665,192.613 44.840 C 192.992 45.014,193.447 45.248,193.625 45.361 C 193.803 45.474,194.095 45.621,194.273 45.688 C 194.452 45.755,194.743 45.898,194.922 46.005 C 195.100 46.112,195.489 46.306,195.786 46.437 C 196.357 46.688,196.820 46.956,197.776 47.587 C 198.098 47.800,198.512 47.974,198.695 47.974 C 198.878 47.974,199.222 48.169,199.460 48.406 C 199.697 48.644,200.075 48.838,200.298 48.838 C 200.521 48.838,200.824 48.984,200.972 49.163 C 201.120 49.341,201.425 49.487,201.649 49.487 C 201.874 49.487,202.224 49.681,202.427 49.919 C 202.631 50.157,202.955 50.351,203.148 50.351 C 203.342 50.351,203.724 50.546,203.998 50.783 C 204.272 51.021,204.661 51.216,204.862 51.216 C 205.063 51.216,205.403 51.410,205.619 51.648 C 205.834 51.885,206.227 52.080,206.493 52.080 C 206.759 52.080,207.033 52.226,207.101 52.404 C 207.170 52.582,207.399 52.735,207.611 52.743 C 207.822 52.751,208.482 53.037,209.076 53.379 C 209.670 53.721,210.789 54.317,211.561 54.703 C 212.334 55.090,213.094 55.533,213.252 55.688 C 213.409 55.843,213.685 55.970,213.866 55.970 C 214.046 55.970,214.442 56.164,214.744 56.402 C 215.046 56.640,215.414 56.834,215.562 56.834 C 215.710 56.834,215.951 56.980,216.099 57.158 C 216.247 57.337,216.538 57.482,216.745 57.482 C 216.952 57.482,217.369 57.677,217.671 57.915 C 217.973 58.152,218.360 58.347,218.531 58.347 C 218.702 58.347,219.018 58.541,219.233 58.779 C 219.448 59.017,219.830 59.211,220.083 59.211 C 220.335 59.211,220.708 59.406,220.912 59.643 C 221.115 59.881,221.465 60.076,221.689 60.076 C 221.914 60.076,222.218 60.222,222.366 60.400 C 222.514 60.578,222.803 60.724,223.008 60.724 C 223.213 60.724,223.605 60.918,223.879 61.156 C 224.153 61.394,224.512 61.588,224.677 61.588 C 224.842 61.588,225.240 61.762,225.563 61.975 C 226.484 62.584,226.962 62.856,227.688 63.184 C 228.060 63.352,228.431 63.596,228.511 63.727 C 228.592 63.858,228.833 63.965,229.045 63.965 C 229.258 63.965,229.656 64.160,229.930 64.398 C 230.204 64.635,230.596 64.830,230.801 64.830 C 231.006 64.830,231.295 64.976,231.442 65.154 C 231.590 65.332,231.895 65.478,232.119 65.478 C 232.344 65.478,232.694 65.673,232.897 65.910 C 233.101 66.148,233.467 66.343,233.712 66.343 C 233.956 66.343,234.322 66.537,234.526 66.775 C 234.729 67.012,235.052 67.207,235.242 67.207 C 235.432 67.207,235.835 67.401,236.138 67.639 C 236.440 67.877,236.808 68.071,236.956 68.071 C 237.103 68.071,237.345 68.217,237.493 68.395 C 237.641 68.574,237.932 68.720,238.139 68.720 C 238.346 68.720,238.763 68.914,239.065 69.152 C 239.367 69.390,239.754 69.584,239.925 69.584 C 240.096 69.584,240.461 69.778,240.735 70.016 C 241.009 70.254,241.373 70.448,241.544 70.448 C 241.715 70.448,242.102 70.643,242.405 70.881 C 242.707 71.118,243.075 71.313,243.223 71.313 C 243.370 71.313,243.612 71.459,243.760 71.637 C 243.908 71.815,244.172 71.961,244.347 71.961 C 244.521 71.961,244.912 72.156,245.214 72.393 C 245.516 72.631,245.934 72.825,246.143 72.825 C 246.591 72.825,246.848 73.369,246.668 73.936 C 246.560 74.276,246.314 74.338,245.083 74.338 C 243.485 74.338,242.482 73.902,243.112 73.481 C 243.332 73.334,241.179 73.269,236.413 73.278 C 232.550 73.286,229.511 73.341,229.660 73.401 C 230.063 73.564,229.986 73.983,229.498 74.288 C 229.067 74.557,229.065 74.792,229.065 122.409 C 229.065 151.000,228.986 170.310,228.868 170.383 C 228.726 170.470,169.348 170.549,137.841 170.503 C 137.218 170.502,137.219 170.593,137.222 122.217 C 137.224 90.545,137.152 74.414,137.005 73.995 L 136.786 73.366 130.540 73.366 C 125.823 73.366,124.345 73.427,124.502 73.617 C 124.845 74.030,124.333 74.178,122.185 74.291 L 120.174 74.396 120.023 73.793 C 119.860 73.144,120.315 72.609,121.031 72.609 C 121.231 72.609,121.516 72.464,121.664 72.285 C 121.812 72.107,122.154 71.961,122.424 71.961 C 122.694 71.961,122.965 71.828,123.028 71.665 C 123.091 71.502,123.409 71.301,123.736 71.219 C 124.063 71.137,124.571 70.881,124.864 70.651 C 125.156 70.421,125.567 70.232,125.776 70.232 C 125.985 70.232,126.212 70.086,126.280 69.908 C 126.349 69.730,126.578 69.578,126.790 69.570 C 127.001 69.562,127.661 69.272,128.255 68.927 C 128.849 68.581,129.640 68.160,130.011 67.991 C 130.383 67.822,130.754 67.576,130.835 67.445 C 130.916 67.314,131.156 67.207,131.368 67.207 C 131.581 67.207,131.979 67.012,132.253 66.775 C 132.527 66.537,132.909 66.343,133.102 66.343 C 133.295 66.343,133.620 66.148,133.823 65.910 C 134.027 65.673,134.377 65.478,134.601 65.478 C 134.826 65.478,135.130 65.332,135.278 65.154 C 135.426 64.976,135.763 64.830,136.028 64.830 C 136.292 64.830,136.684 64.635,136.899 64.398 C 137.114 64.160,137.470 63.965,137.689 63.965 C 137.908 63.965,138.282 63.771,138.520 63.533 C 138.757 63.296,139.136 63.101,139.361 63.101 C 139.586 63.101,139.823 62.964,139.887 62.797 C 139.951 62.630,140.308 62.427,140.681 62.345 C 141.053 62.263,141.406 62.070,141.465 61.916 C 141.524 61.763,141.864 61.579,142.220 61.507 C 142.576 61.436,143.014 61.231,143.194 61.051 C 143.374 60.871,143.711 60.724,143.944 60.724 C 144.177 60.724,144.424 60.578,144.492 60.400 C 144.561 60.222,144.788 60.076,144.997 60.076 C 145.206 60.076,145.609 59.905,145.892 59.697 C 146.175 59.489,146.894 59.076,147.488 58.779 C 148.082 58.482,148.800 58.069,149.084 57.861 C 149.367 57.653,149.769 57.482,149.976 57.482 C 150.183 57.482,150.473 57.337,150.621 57.158 C 150.769 56.980,151.058 56.834,151.263 56.834 C 151.467 56.834,151.811 56.640,152.026 56.402 C 152.241 56.164,152.648 55.970,152.931 55.970 C 153.213 55.970,153.497 55.833,153.561 55.665 C 153.625 55.498,153.931 55.297,154.240 55.220 C 154.548 55.142,155.041 54.890,155.334 54.660 C 155.626 54.429,156.037 54.241,156.246 54.241 C 156.455 54.241,156.682 54.095,156.750 53.917 C 156.819 53.739,157.081 53.593,157.334 53.593 C 157.586 53.593,158.040 53.398,158.342 53.160 C 158.644 52.923,159.073 52.728,159.294 52.728 C 159.516 52.728,159.697 52.628,159.697 52.505 C 159.697 52.383,159.819 52.240,159.968 52.188 C 160.661 51.944,161.389 51.595,162.183 51.128 C 162.658 50.847,163.582 50.352,164.236 50.028 C 164.889 49.704,165.570 49.354,165.748 49.250 C 165.927 49.146,166.377 48.924,166.748 48.756 C 167.120 48.588,167.491 48.343,167.571 48.212 C 167.652 48.081,167.900 47.974,168.123 47.974 C 168.345 47.974,168.660 47.841,168.822 47.678 C 168.985 47.516,169.357 47.308,169.648 47.217 C 169.940 47.125,170.410 46.869,170.694 46.648 C 170.977 46.426,171.330 46.245,171.478 46.245 C 171.625 46.245,171.867 46.099,172.015 45.921 C 172.163 45.743,172.500 45.597,172.764 45.597 C 173.029 45.597,173.421 45.402,173.636 45.165 C 173.851 44.927,174.167 44.733,174.338 44.733 C 174.508 44.733,174.895 44.538,175.198 44.300 C 175.500 44.063,175.918 43.868,176.127 43.868 C 176.336 43.868,176.563 43.722,176.631 43.544 C 176.700 43.366,176.940 43.220,177.166 43.220 C 177.391 43.220,177.807 43.045,178.091 42.832 C 178.374 42.619,179.481 42.016,180.551 41.493 C 181.621 40.969,182.624 40.414,182.782 40.260 C 183.163 39.884,183.786 39.904,184.117 40.303 M224.959 61.156 C 225.222 61.326,225.191 61.366,224.797 61.369 C 224.530 61.371,224.311 61.275,224.311 61.156 C 224.311 60.885,224.541 60.885,224.959 61.156 M241.707 73.790 C 242.277 74.051,241.659 74.089,236.592 74.105 C 230.946 74.122,229.576 74.024,230.486 73.667 C 231.278 73.357,240.993 73.463,241.707 73.790 M206.014 171.097 C 193.514 171.127,172.995 171.128,160.417 171.097 C 147.839 171.066,158.066 171.041,183.144 171.041 C 208.223 171.041,218.514 171.066,206.014 171.097 " stroke="none" fill="#fc8c2c" fill-rule="evenodd"></path><path id="path1" d="M181.802 41.491 C 181.717 41.816,181.507 41.923,180.958 41.923 C 180.452 41.923,180.227 42.023,180.227 42.247 C 180.227 42.449,180.023 42.572,179.685 42.572 C 179.386 42.572,178.976 42.766,178.772 43.004 C 178.569 43.241,178.184 43.436,177.917 43.436 C 177.651 43.436,177.329 43.630,177.202 43.868 C 177.068 44.118,176.749 44.300,176.445 44.300 C 176.141 44.300,175.823 44.482,175.689 44.733 C 175.537 45.016,175.236 45.165,174.817 45.165 C 174.336 45.165,174.176 45.265,174.176 45.567 C 174.176 45.876,174.055 45.946,173.653 45.869 C 173.300 45.802,173.002 45.917,172.740 46.223 C 172.518 46.482,172.094 46.677,171.751 46.677 C 171.361 46.677,171.151 46.791,171.151 47.002 C 171.151 47.204,170.946 47.326,170.608 47.326 C 170.310 47.326,169.899 47.520,169.696 47.758 C 169.492 47.996,169.108 48.190,168.841 48.190 C 168.575 48.190,168.253 48.385,168.125 48.622 C 167.976 48.902,167.673 49.055,167.268 49.055 C 166.832 49.055,166.600 49.186,166.505 49.487 C 166.408 49.791,166.178 49.919,165.727 49.919 C 165.357 49.919,165.034 50.056,164.962 50.243 C 164.894 50.421,164.604 50.567,164.318 50.567 C 164.033 50.567,163.633 50.762,163.429 50.999 C 163.226 51.237,162.841 51.432,162.574 51.432 C 162.308 51.432,161.986 51.626,161.858 51.864 C 161.710 52.141,161.406 52.296,161.012 52.296 C 160.578 52.296,160.363 52.424,160.283 52.728 C 160.201 53.043,159.988 53.160,159.502 53.160 C 159.075 53.160,158.833 53.269,158.833 53.461 C 158.833 53.633,158.507 53.822,158.065 53.905 C 157.643 53.984,157.244 54.189,157.178 54.361 C 157.112 54.533,156.822 54.673,156.534 54.673 C 156.246 54.673,155.954 54.819,155.886 54.997 C 155.817 55.176,155.585 55.321,155.370 55.321 C 154.748 55.321,154.295 55.559,154.295 55.885 C 154.295 56.050,154.108 56.186,153.880 56.186 C 153.236 56.186,152.782 56.419,152.782 56.749 C 152.782 56.934,152.551 57.050,152.182 57.050 C 151.849 57.050,151.417 57.243,151.212 57.482 C 151.008 57.720,150.608 57.915,150.322 57.915 C 150.037 57.915,149.751 58.051,149.687 58.218 C 149.622 58.385,149.280 58.586,148.925 58.664 C 148.570 58.742,148.227 58.945,148.161 59.116 C 148.094 59.291,147.758 59.427,147.394 59.427 C 146.968 59.427,146.668 59.575,146.515 59.860 C 146.382 60.110,146.063 60.292,145.759 60.292 C 145.455 60.292,145.137 60.474,145.003 60.724 C 144.851 61.007,144.550 61.156,144.131 61.156 C 143.705 61.156,143.490 61.265,143.490 61.480 C 143.490 61.682,143.286 61.804,142.948 61.804 C 142.649 61.804,142.239 61.999,142.035 62.237 C 141.832 62.474,141.491 62.669,141.279 62.669 C 141.066 62.669,140.726 62.863,140.523 63.101 C 140.317 63.341,139.885 63.533,139.552 63.533 C 139.163 63.533,138.952 63.647,138.952 63.857 C 138.952 64.048,138.752 64.183,138.466 64.185 C 137.951 64.188,137.390 64.461,137.421 64.692 C 137.478 65.116,137.380 65.178,136.793 65.092 C 136.341 65.026,136.108 65.100,136.016 65.340 C 135.944 65.528,135.561 65.743,135.164 65.818 C 134.768 65.892,134.395 66.080,134.335 66.235 C 134.276 66.391,133.929 66.583,133.564 66.663 C 133.199 66.744,132.901 66.947,132.901 67.116 C 132.901 67.312,132.670 67.423,132.260 67.423 C 131.841 67.423,131.540 67.572,131.388 67.855 C 131.240 68.132,130.936 68.287,130.542 68.287 C 130.108 68.287,129.893 68.415,129.813 68.720 C 129.727 69.051,129.518 69.152,128.924 69.152 C 128.377 69.152,128.147 69.248,128.147 69.476 C 128.147 69.678,127.943 69.800,127.605 69.800 C 127.306 69.800,126.896 69.995,126.692 70.232 C 126.489 70.470,126.148 70.665,125.936 70.665 C 125.723 70.665,125.383 70.859,125.179 71.097 C 124.970 71.341,124.542 71.529,124.193 71.529 C 123.721 71.529,123.595 71.617,123.654 71.907 C 123.757 72.413,125.309 72.391,125.595 71.880 C 125.704 71.685,126.063 71.529,126.402 71.529 C 126.739 71.529,127.135 71.383,127.283 71.205 C 127.431 71.026,127.719 70.881,127.924 70.881 C 128.129 70.881,128.472 70.686,128.687 70.448 C 128.902 70.211,129.251 70.016,129.462 70.016 C 129.674 70.016,129.908 69.822,129.984 69.584 C 130.104 69.205,130.718 69.012,131.442 69.126 C 131.532 69.140,131.605 69.006,131.605 68.828 C 131.605 68.609,131.823 68.504,132.273 68.504 C 132.760 68.504,132.972 68.386,133.055 68.071 C 133.140 67.744,133.349 67.639,133.919 67.639 C 134.489 67.639,134.698 67.535,134.783 67.207 C 134.868 66.882,135.078 66.775,135.628 66.775 C 136.133 66.775,136.359 66.675,136.359 66.451 C 136.359 66.272,136.491 66.126,136.654 66.126 C 136.816 66.126,137.181 65.945,137.464 65.722 C 137.748 65.500,138.287 65.251,138.664 65.169 C 139.040 65.087,139.402 64.880,139.467 64.709 C 139.533 64.538,139.776 64.398,140.008 64.398 C 140.658 64.398,141.113 64.166,141.113 63.834 C 141.113 63.634,141.367 63.533,141.869 63.533 C 142.285 63.533,142.626 63.434,142.626 63.312 C 142.626 63.190,142.869 62.998,143.166 62.885 C 143.463 62.772,143.706 62.537,143.706 62.364 C 143.706 62.165,143.967 62.023,144.408 61.980 C 144.859 61.937,145.111 61.796,145.111 61.588 C 145.111 61.371,145.372 61.242,145.899 61.198 C 146.444 61.153,146.719 61.011,146.790 60.740 C 146.857 60.484,147.071 60.361,147.406 60.386 C 147.991 60.430,148.514 60.121,148.337 59.835 C 148.272 59.730,148.574 59.643,149.008 59.643 C 149.616 59.643,149.823 59.544,149.910 59.211 C 149.994 58.890,150.205 58.779,150.731 58.779 C 151.140 58.779,151.489 58.651,151.556 58.475 C 151.620 58.308,151.963 58.108,152.317 58.030 C 152.672 57.952,153.016 57.748,153.082 57.577 C 153.147 57.406,153.391 57.266,153.622 57.266 C 154.273 57.266,154.727 57.035,154.727 56.703 C 154.727 56.513,154.965 56.402,155.374 56.402 C 155.786 56.402,156.118 56.245,156.290 55.970 C 156.457 55.702,156.794 55.538,157.176 55.538 C 157.604 55.538,157.826 55.410,157.902 55.120 C 157.969 54.863,158.132 54.749,158.327 54.824 C 158.527 54.901,158.687 54.777,158.763 54.485 C 158.852 54.146,159.052 54.025,159.527 54.025 C 159.982 54.025,160.202 53.902,160.280 53.604 C 160.359 53.302,160.612 53.165,161.178 53.118 C 161.668 53.077,161.946 52.950,161.912 52.782 C 161.863 52.534,162.416 52.405,163.118 52.500 C 163.276 52.521,163.457 52.338,163.521 52.093 C 163.610 51.754,163.812 51.648,164.369 51.648 C 164.956 51.648,165.100 51.563,165.100 51.216 C 165.100 50.864,165.244 50.783,165.877 50.783 C 166.471 50.783,166.680 50.682,166.766 50.351 C 166.851 50.026,167.061 49.919,167.610 49.919 C 168.116 49.919,168.341 49.819,168.341 49.595 C 168.341 49.380,168.557 49.271,168.982 49.271 C 169.402 49.271,169.703 49.121,169.854 48.838 C 170.008 48.551,170.307 48.406,170.746 48.406 C 171.226 48.406,171.438 48.287,171.520 47.974 C 171.605 47.649,171.815 47.542,172.364 47.542 C 172.948 47.542,173.096 47.456,173.096 47.116 C 173.096 46.854,173.204 46.733,173.379 46.800 C 173.535 46.860,173.842 46.711,174.061 46.469 C 174.280 46.227,174.687 46.029,174.966 46.029 C 175.245 46.029,175.667 45.835,175.905 45.597 C 176.143 45.359,176.492 45.165,176.681 45.165 C 176.870 45.165,177.271 44.972,177.571 44.736 C 177.871 44.499,178.201 44.359,178.305 44.422 C 178.408 44.486,178.707 44.339,178.968 44.095 C 179.230 43.852,179.629 43.652,179.856 43.652 C 180.086 43.652,180.317 43.461,180.380 43.220 C 180.465 42.895,180.675 42.788,181.225 42.788 C 181.812 42.788,181.956 42.703,181.956 42.355 C 181.956 41.976,182.100 41.923,183.144 41.923 C 184.045 41.923,184.438 42.028,184.765 42.355 C 185.003 42.593,185.380 42.788,185.604 42.788 C 185.829 42.788,186.062 42.981,186.124 43.220 C 186.206 43.533,186.419 43.652,186.898 43.652 C 187.338 43.652,187.636 43.797,187.790 44.084 C 187.942 44.367,188.243 44.516,188.662 44.516 C 189.088 44.516,189.303 44.625,189.303 44.841 C 189.303 45.067,189.531 45.165,190.059 45.165 C 190.562 45.165,190.816 45.266,190.816 45.466 C 190.816 45.814,191.276 46.029,192.022 46.029 C 192.325 46.029,192.545 46.156,192.545 46.330 C 192.545 46.699,193.074 46.926,193.530 46.751 C 193.755 46.664,193.907 46.774,193.987 47.082 C 194.079 47.433,194.275 47.542,194.814 47.542 C 195.338 47.542,195.549 47.653,195.633 47.974 C 195.709 48.266,195.927 48.406,196.304 48.406 C 196.629 48.406,196.976 48.587,197.133 48.838 C 197.313 49.127,197.637 49.271,198.107 49.271 C 198.589 49.271,198.811 49.373,198.811 49.595 C 198.811 49.821,199.040 49.919,199.568 49.919 C 200.499 49.919,200.617 49.349,199.730 49.136 C 199.403 49.058,198.962 48.813,198.749 48.592 C 198.536 48.371,198.123 48.190,197.831 48.190 C 197.509 48.190,197.299 48.066,197.299 47.876 C 197.299 47.688,196.995 47.504,196.542 47.420 C 196.109 47.338,195.786 47.149,195.786 46.978 C 195.786 46.789,195.548 46.677,195.145 46.677 C 194.733 46.677,194.425 46.528,194.281 46.259 C 194.146 46.006,193.778 45.814,193.355 45.773 C 192.934 45.732,192.674 45.597,192.707 45.435 C 192.740 45.267,192.517 45.165,192.120 45.165 C 191.700 45.165,191.399 45.016,191.248 44.733 C 191.114 44.482,190.796 44.300,190.492 44.300 C 190.188 44.300,189.869 44.118,189.735 43.868 C 189.606 43.627,189.283 43.436,189.005 43.436 C 188.730 43.436,188.330 43.241,188.115 43.004 C 187.899 42.766,187.492 42.572,187.210 42.572 C 186.927 42.572,186.640 42.426,186.572 42.247 C 186.504 42.069,186.190 41.923,185.874 41.923 C 185.535 41.923,185.191 41.747,185.031 41.491 C 184.806 41.130,184.527 41.059,183.338 41.059 C 182.097 41.059,181.901 41.114,181.802 41.491 M200.540 50.152 C 200.540 50.610,201.803 51.648,202.360 51.648 C 202.704 51.648,202.917 51.768,202.917 51.962 C 202.917 52.149,203.218 52.333,203.659 52.416 C 204.066 52.492,204.452 52.691,204.516 52.858 C 204.580 53.024,204.924 53.160,205.280 53.160 C 205.706 53.160,206.007 53.308,206.159 53.593 C 206.310 53.876,206.611 54.025,207.031 54.025 C 207.434 54.025,207.672 54.136,207.672 54.326 C 207.672 54.652,208.124 54.889,208.747 54.889 C 208.962 54.889,209.194 55.035,209.262 55.213 C 209.339 55.414,209.668 55.538,210.125 55.538 C 210.672 55.538,210.891 55.645,210.972 55.954 C 211.047 56.241,211.307 56.393,211.807 56.440 C 212.278 56.486,212.534 56.624,212.534 56.834 C 212.534 57.053,212.798 57.180,213.344 57.225 C 213.844 57.267,214.155 57.403,214.155 57.582 C 214.155 57.890,215.683 58.779,216.214 58.779 C 216.389 58.779,216.532 58.915,216.532 59.080 C 216.532 59.406,216.984 59.643,217.607 59.643 C 217.822 59.643,218.052 59.784,218.118 59.956 C 218.184 60.127,218.576 60.331,218.990 60.409 C 219.404 60.487,219.795 60.687,219.859 60.853 C 219.923 61.020,220.247 61.156,220.579 61.156 C 220.948 61.156,221.287 61.324,221.452 61.588 C 221.600 61.826,221.953 62.021,222.235 62.021 C 222.566 62.021,222.788 62.174,222.861 62.453 C 222.948 62.784,223.156 62.885,223.751 62.885 C 224.297 62.885,224.527 62.981,224.527 63.209 C 224.527 63.433,224.753 63.533,225.258 63.533 C 225.808 63.533,226.018 63.641,226.103 63.965 C 226.184 64.278,226.397 64.398,226.870 64.398 C 227.334 64.398,227.563 64.523,227.661 64.830 C 227.763 65.151,227.988 65.262,228.540 65.262 C 229.055 65.262,229.281 65.361,229.281 65.586 C 229.281 65.764,229.379 65.910,229.498 65.910 C 229.927 65.910,230.042 65.975,230.320 66.372 C 230.476 66.593,230.792 66.775,231.023 66.775 C 231.253 66.775,231.637 66.969,231.875 67.207 C 232.112 67.445,232.540 67.639,232.824 67.639 C 233.108 67.639,233.394 67.776,233.458 67.943 C 233.522 68.110,233.891 68.316,234.279 68.401 C 234.667 68.487,235.118 68.690,235.281 68.854 C 235.445 69.018,235.743 69.152,235.944 69.152 C 236.145 69.152,236.430 69.346,236.579 69.584 C 236.747 69.853,237.083 70.016,237.470 70.016 C 237.909 70.016,238.124 70.143,238.204 70.448 C 238.286 70.763,238.499 70.881,238.986 70.881 C 239.436 70.881,239.654 70.986,239.654 71.205 C 239.654 71.430,239.881 71.529,240.396 71.529 C 240.948 71.529,241.173 71.639,241.275 71.961 C 241.376 72.279,241.602 72.393,242.129 72.393 C 242.653 72.393,242.874 72.504,242.953 72.807 C 243.037 73.125,243.335 73.254,244.247 73.368 C 245.705 73.551,246.598 73.396,245.524 73.147 C 245.128 73.055,244.753 72.848,244.691 72.687 C 244.629 72.525,244.288 72.393,243.933 72.393 C 243.469 72.393,243.256 72.272,243.174 71.961 C 243.095 71.657,242.880 71.529,242.446 71.529 C 242.052 71.529,241.747 71.374,241.599 71.097 C 241.470 70.856,241.147 70.665,240.869 70.665 C 240.594 70.665,240.194 70.470,239.978 70.232 C 239.763 69.995,239.383 69.800,239.132 69.800 C 238.882 69.800,238.556 69.606,238.408 69.368 C 238.254 69.121,237.904 68.936,237.593 68.936 C 237.293 68.936,236.992 68.790,236.923 68.612 C 236.848 68.415,236.521 68.287,236.091 68.287 C 235.564 68.287,235.354 68.176,235.270 67.855 C 235.193 67.563,234.975 67.423,234.596 67.423 C 234.262 67.423,234.036 67.302,234.036 67.123 C 234.036 66.953,233.717 66.763,233.300 66.685 C 232.896 66.609,232.510 66.404,232.443 66.229 C 232.375 66.054,232.194 65.910,232.040 65.910 C 231.886 65.910,231.397 65.716,230.954 65.478 C 230.510 65.240,229.998 65.046,229.816 65.046 C 229.633 65.046,229.430 64.906,229.365 64.735 C 229.299 64.564,228.955 64.360,228.601 64.282 C 228.246 64.205,227.903 64.004,227.839 63.837 C 227.775 63.670,227.445 63.533,227.105 63.533 C 226.709 63.533,226.405 63.378,226.256 63.101 C 226.122 62.851,225.804 62.669,225.500 62.669 C 225.196 62.669,224.877 62.487,224.743 62.237 C 224.607 61.982,224.291 61.804,223.973 61.804 C 223.676 61.804,223.377 61.659,223.309 61.480 C 223.233 61.283,222.906 61.156,222.476 61.156 C 221.950 61.156,221.739 61.045,221.655 60.724 C 221.582 60.445,221.361 60.292,221.030 60.292 C 220.748 60.292,220.351 60.097,220.147 59.860 C 219.944 59.622,219.533 59.427,219.235 59.427 C 218.904 59.427,218.693 59.305,218.693 59.113 C 218.693 58.926,218.392 58.742,217.951 58.660 C 217.543 58.583,217.158 58.384,217.094 58.218 C 217.030 58.051,216.795 57.915,216.571 57.915 C 216.348 57.915,215.941 57.720,215.667 57.482 C 215.393 57.245,214.941 57.050,214.662 57.050 C 214.362 57.050,214.155 56.922,214.155 56.736 C 214.155 56.548,213.851 56.365,213.398 56.280 C 212.982 56.202,212.642 56.014,212.642 55.862 C 212.642 55.710,212.311 55.524,211.906 55.448 C 211.502 55.372,211.116 55.166,211.049 54.991 C 210.982 54.816,210.695 54.673,210.413 54.673 C 210.131 54.673,209.723 54.479,209.508 54.241 C 209.293 54.003,208.886 53.809,208.604 53.809 C 208.321 53.809,208.034 53.663,207.966 53.485 C 207.897 53.306,207.665 53.160,207.450 53.160 C 206.828 53.160,206.375 52.923,206.375 52.597 C 206.375 52.407,206.138 52.296,205.734 52.296 C 205.315 52.296,205.014 52.147,204.862 51.864 C 204.735 51.626,204.413 51.432,204.146 51.432 C 203.880 51.432,203.495 51.237,203.292 50.999 C 203.088 50.762,202.723 50.567,202.480 50.567 C 202.238 50.567,201.983 50.421,201.915 50.243 C 201.773 49.874,200.540 49.792,200.540 50.152 M122.204 72.483 C 121.848 72.647,121.386 72.836,121.178 72.904 C 120.533 73.115,120.723 73.690,121.437 73.690 C 123.287 73.690,125.023 72.880,123.879 72.551 C 123.671 72.491,123.355 72.385,123.177 72.314 C 122.998 72.243,122.561 72.319,122.204 72.483 M137.925 121.718 L 137.979 170.178 182.820 170.237 C 207.482 170.270,227.880 170.244,228.147 170.179 L 228.633 170.062 228.633 121.781 C 228.633 73.813,228.618 72.754,227.960 73.412 C 227.835 73.537,227.761 91.659,227.766 120.829 C 227.771 146.797,227.712 168.354,227.636 168.733 L 227.498 169.423 183.115 169.368 L 138.732 169.314 138.735 121.417 C 138.738 71.120,138.772 73.258,137.961 73.258 C 137.911 73.258,137.895 95.065,137.925 121.718 " stroke="none" fill="#fcc795" fill-rule="evenodd"></path><path id="path2" d="M182.334 40.762 C 181.769 41.055,181.307 41.388,181.307 41.501 C 181.307 41.615,181.076 41.707,180.794 41.707 C 180.511 41.707,180.164 41.847,180.022 42.017 C 179.881 42.188,179.473 42.392,179.117 42.470 C 178.760 42.548,178.416 42.749,178.352 42.916 C 178.288 43.083,178.018 43.220,177.752 43.220 C 177.486 43.220,177.092 43.414,176.877 43.652 C 176.662 43.890,176.306 44.084,176.085 44.084 C 175.865 44.084,175.518 44.279,175.315 44.516 C 175.111 44.754,174.726 44.949,174.460 44.949 C 173.859 44.949,173.374 45.708,173.856 45.893 C 174.072 45.976,174.176 45.877,174.176 45.590 C 174.176 45.263,174.324 45.165,174.817 45.165 C 175.236 45.165,175.537 45.016,175.689 44.733 C 175.823 44.482,176.141 44.300,176.445 44.300 C 176.749 44.300,177.068 44.118,177.202 43.868 C 177.329 43.630,177.651 43.436,177.917 43.436 C 178.184 43.436,178.569 43.241,178.772 43.004 C 178.976 42.766,179.386 42.572,179.685 42.572 C 180.023 42.572,180.227 42.449,180.227 42.247 C 180.227 42.023,180.452 41.923,180.958 41.923 C 181.507 41.923,181.717 41.816,181.802 41.491 C 181.901 41.114,182.097 41.059,183.338 41.059 C 184.527 41.059,184.806 41.130,185.031 41.491 C 185.191 41.747,185.535 41.923,185.874 41.923 C 186.190 41.923,186.504 42.069,186.572 42.247 C 186.640 42.426,186.918 42.571,187.189 42.570 C 187.651 42.569,187.641 42.541,187.034 42.139 C 186.677 41.903,186.213 41.709,186.001 41.709 C 185.789 41.708,185.562 41.567,185.497 41.396 C 185.431 41.225,185.087 41.022,184.732 40.944 C 184.378 40.866,184.035 40.665,183.971 40.498 C 183.814 40.090,183.544 40.134,182.334 40.762 M188.115 43.004 C 188.330 43.241,188.730 43.436,189.005 43.436 C 189.283 43.436,189.606 43.627,189.735 43.868 C 189.869 44.118,190.188 44.300,190.492 44.300 C 190.796 44.300,191.114 44.482,191.248 44.733 C 191.399 45.016,191.700 45.165,192.120 45.165 C 192.502 45.165,192.739 45.269,192.707 45.422 C 192.677 45.564,192.847 45.721,193.085 45.771 C 193.511 45.862,193.511 45.857,193.105 45.406 C 192.879 45.154,192.554 44.949,192.383 44.949 C 192.212 44.949,191.825 44.754,191.523 44.516 C 191.221 44.279,190.856 44.084,190.712 44.084 C 190.568 44.084,190.225 43.890,189.951 43.652 C 189.677 43.414,189.284 43.220,189.077 43.220 C 188.870 43.220,188.645 43.074,188.577 42.896 C 188.508 42.717,188.288 42.572,188.088 42.572 C 187.755 42.572,187.757 42.609,188.115 43.004 M172.253 46.111 C 172.117 46.275,171.728 46.465,171.389 46.533 C 170.737 46.663,170.273 47.326,170.833 47.326 C 171.008 47.326,171.151 47.180,171.151 47.002 C 171.151 46.791,171.361 46.677,171.751 46.677 C 172.084 46.677,172.516 46.485,172.721 46.245 C 173.003 45.916,173.021 45.813,172.796 45.813 C 172.633 45.813,172.389 45.947,172.253 46.111 M194.273 46.245 C 194.425 46.528,194.726 46.677,195.145 46.677 C 195.571 46.677,195.786 46.786,195.786 47.002 C 195.786 47.180,195.947 47.326,196.144 47.326 C 196.465 47.326,196.462 47.282,196.110 46.894 C 195.895 46.656,195.501 46.461,195.235 46.461 C 194.969 46.461,194.696 46.316,194.627 46.137 C 194.559 45.959,194.399 45.813,194.273 45.813 C 194.110 45.813,194.110 45.940,194.273 46.245 M169.271 47.618 C 169.176 47.779,168.952 47.966,168.774 48.033 C 168.541 48.121,168.574 48.161,168.888 48.173 C 169.129 48.182,169.492 47.996,169.696 47.758 C 169.995 47.409,170.006 47.326,169.755 47.326 C 169.583 47.326,169.366 47.457,169.271 47.618 M196.921 47.475 C 197.129 47.529,197.299 47.712,197.299 47.882 C 197.299 48.065,197.514 48.190,197.831 48.190 C 198.123 48.190,198.536 48.371,198.749 48.592 C 198.962 48.813,199.403 49.058,199.730 49.136 C 200.057 49.215,200.324 49.423,200.324 49.599 C 200.324 49.819,200.554 49.919,201.057 49.919 C 201.510 49.919,201.838 50.043,201.915 50.243 C 201.983 50.421,202.238 50.567,202.480 50.567 C 202.723 50.567,203.088 50.762,203.292 50.999 C 203.495 51.237,203.880 51.432,204.146 51.432 C 204.413 51.432,204.735 51.626,204.862 51.864 C 205.014 52.147,205.315 52.296,205.734 52.296 C 206.138 52.296,206.375 52.407,206.375 52.597 C 206.375 52.923,206.828 53.160,207.450 53.160 C 207.665 53.160,207.897 53.306,207.966 53.485 C 208.034 53.663,208.321 53.809,208.604 53.809 C 208.886 53.809,209.293 54.003,209.508 54.241 C 209.723 54.479,210.123 54.673,210.396 54.673 C 210.668 54.673,210.986 54.843,211.102 55.050 C 211.218 55.257,211.373 55.365,211.447 55.291 C 211.656 55.082,210.930 54.457,210.478 54.457 C 210.256 54.457,210.012 54.356,209.935 54.232 C 209.859 54.108,209.148 53.701,208.356 53.327 C 207.563 52.954,206.787 52.520,206.630 52.364 C 206.473 52.208,206.153 52.080,205.921 52.080 C 205.688 52.080,205.444 51.943,205.380 51.775 C 205.316 51.608,205.003 51.406,204.685 51.326 C 204.366 51.247,203.960 51.055,203.782 50.900 C 203.603 50.745,203.219 50.545,202.927 50.456 C 202.636 50.367,202.264 50.161,202.102 49.999 C 201.939 49.836,201.630 49.703,201.416 49.703 C 201.201 49.703,200.909 49.563,200.768 49.393 C 200.626 49.222,200.233 49.022,199.895 48.947 C 199.557 48.873,199.231 48.685,199.171 48.529 C 199.111 48.373,198.800 48.180,198.479 48.099 C 198.158 48.019,197.754 47.812,197.581 47.639 C 197.409 47.467,197.105 47.337,196.905 47.351 C 196.582 47.373,196.584 47.387,196.921 47.475 M167.792 48.421 C 167.713 48.549,167.440 48.737,167.185 48.840 C 166.752 49.014,166.760 49.028,167.307 49.041 C 167.683 49.050,167.977 48.899,168.125 48.622 C 168.366 48.173,168.060 47.988,167.792 48.421 M166.185 49.373 C 166.034 49.555,165.753 49.704,165.560 49.704 C 165.366 49.705,164.916 49.899,164.560 50.135 C 163.983 50.517,163.963 50.565,164.375 50.566 C 164.629 50.567,164.894 50.421,164.962 50.243 C 165.033 50.057,165.356 49.919,165.718 49.919 C 166.105 49.919,166.403 49.781,166.487 49.564 C 166.674 49.076,166.515 48.976,166.185 49.373 M163.077 50.891 C 163.008 51.070,162.754 51.216,162.511 51.216 C 162.269 51.216,161.904 51.410,161.700 51.648 C 161.497 51.885,161.124 52.080,160.871 52.080 C 160.619 52.080,160.237 52.274,160.022 52.512 C 159.806 52.750,159.466 52.944,159.265 52.944 C 159.064 52.944,158.675 53.139,158.401 53.377 C 158.127 53.614,157.735 53.809,157.530 53.809 C 157.325 53.809,157.044 53.945,156.906 54.112 C 156.767 54.278,156.403 54.478,156.097 54.555 C 155.313 54.751,154.748 55.321,155.337 55.321 C 155.570 55.321,155.817 55.176,155.886 54.997 C 155.954 54.819,156.246 54.673,156.534 54.673 C 156.822 54.673,157.112 54.533,157.178 54.361 C 157.244 54.189,157.643 53.984,158.065 53.905 C 158.507 53.822,158.833 53.633,158.833 53.461 C 158.833 53.269,159.075 53.160,159.502 53.160 C 159.988 53.160,160.201 53.043,160.283 52.728 C 160.363 52.424,160.578 52.296,161.012 52.296 C 161.406 52.296,161.710 52.141,161.858 51.864 C 161.986 51.626,162.308 51.432,162.574 51.432 C 162.841 51.432,163.226 51.237,163.429 50.999 C 163.715 50.666,163.731 50.567,163.500 50.567 C 163.336 50.567,163.145 50.713,163.077 50.891 M153.946 55.632 C 153.880 55.803,153.544 56.005,153.199 56.081 C 152.854 56.157,152.524 56.295,152.467 56.388 C 152.409 56.481,151.411 57.029,150.249 57.606 C 147.653 58.894,146.869 59.427,147.574 59.427 C 147.831 59.427,148.095 59.287,148.161 59.116 C 148.227 58.945,148.570 58.742,148.925 58.664 C 149.280 58.586,149.622 58.385,149.687 58.218 C 149.751 58.051,150.037 57.915,150.322 57.915 C 150.608 57.915,151.008 57.720,151.212 57.482 C 151.417 57.243,151.849 57.050,152.182 57.050 C 152.551 57.050,152.782 56.934,152.782 56.749 C 152.782 56.419,153.236 56.186,153.880 56.186 C 154.108 56.186,154.295 56.048,154.295 55.880 C 154.295 55.711,154.417 55.525,154.565 55.465 C 154.724 55.400,154.677 55.349,154.450 55.339 C 154.239 55.329,154.012 55.461,153.946 55.632 M212.156 55.474 C 212.423 55.525,212.642 55.696,212.642 55.853 C 212.642 56.009,212.982 56.202,213.398 56.280 C 213.851 56.365,214.155 56.548,214.155 56.736 C 214.155 56.913,214.356 57.050,214.616 57.050 C 215.229 57.050,214.325 56.291,213.451 56.072 C 213.142 55.994,212.837 55.794,212.772 55.626 C 212.708 55.459,212.434 55.335,212.162 55.351 L 211.669 55.380 212.156 55.474 M215.667 57.482 C 215.941 57.720,216.348 57.915,216.571 57.915 C 216.795 57.915,217.030 58.051,217.094 58.218 C 217.158 58.384,217.543 58.583,217.951 58.660 C 218.392 58.742,218.693 58.926,218.693 59.113 C 218.693 59.305,218.904 59.427,219.235 59.427 C 219.533 59.427,219.944 59.622,220.147 59.860 C 220.351 60.097,220.748 60.292,221.030 60.292 C 221.361 60.292,221.582 60.445,221.655 60.724 C 221.739 61.045,221.950 61.156,222.476 61.156 C 222.906 61.156,223.233 61.283,223.309 61.480 C 223.377 61.659,223.676 61.804,223.973 61.804 C 224.291 61.804,224.607 61.982,224.743 62.237 C 224.877 62.487,225.196 62.669,225.500 62.669 C 225.804 62.669,226.122 62.851,226.256 63.101 C 226.405 63.378,226.709 63.533,227.105 63.533 C 227.455 63.533,227.777 63.674,227.847 63.857 C 227.915 64.036,228.069 64.182,228.187 64.182 C 228.663 64.182,228.106 63.503,227.536 63.390 C 227.201 63.322,226.761 63.084,226.558 62.860 C 226.355 62.636,226.015 62.453,225.803 62.453 C 225.591 62.453,225.357 62.356,225.284 62.237 C 225.161 62.038,223.406 61.165,222.528 60.866 C 222.320 60.795,222.150 60.642,222.150 60.524 C 222.150 60.407,221.817 60.249,221.409 60.172 C 221.001 60.096,220.619 59.906,220.559 59.751 C 220.499 59.595,220.152 59.403,219.788 59.322 C 219.423 59.242,219.125 59.095,219.125 58.995 C 219.125 58.895,218.792 58.703,218.386 58.569 C 217.979 58.434,217.530 58.184,217.387 58.012 C 217.244 57.839,216.956 57.699,216.748 57.699 C 216.539 57.699,216.247 57.553,216.099 57.374 C 215.951 57.196,215.682 57.050,215.500 57.050 C 215.259 57.050,215.304 57.167,215.667 57.482 M146.221 59.751 C 146.153 59.930,145.898 60.076,145.656 60.076 C 145.413 60.076,145.048 60.270,144.845 60.508 C 144.641 60.746,144.265 60.940,144.009 60.940 C 143.753 60.940,143.427 61.080,143.285 61.250 C 143.144 61.421,142.736 61.625,142.380 61.703 C 142.024 61.781,141.680 61.982,141.615 62.149 C 141.551 62.316,141.328 62.453,141.119 62.453 C 140.910 62.453,140.507 62.632,140.224 62.852 C 139.940 63.072,139.452 63.314,139.138 63.390 C 138.514 63.543,138.107 64.182,138.635 64.182 C 138.809 64.182,138.952 64.036,138.952 63.857 C 138.952 63.647,139.163 63.533,139.552 63.533 C 139.885 63.533,140.317 63.341,140.523 63.101 C 140.726 62.863,141.066 62.669,141.279 62.669 C 141.491 62.669,141.832 62.474,142.035 62.237 C 142.239 61.999,142.649 61.804,142.948 61.804 C 143.286 61.804,143.490 61.682,143.490 61.480 C 143.490 61.265,143.705 61.156,144.131 61.156 C 144.550 61.156,144.851 61.007,145.003 60.724 C 145.137 60.474,145.455 60.292,145.759 60.292 C 146.063 60.292,146.382 60.110,146.515 59.860 C 146.646 59.616,146.659 59.427,146.546 59.427 C 146.436 59.427,146.290 59.573,146.221 59.751 M137.085 64.506 C 137.017 64.684,136.801 64.836,136.606 64.844 C 136.410 64.852,135.764 65.144,135.170 65.493 C 134.576 65.842,133.701 66.316,133.225 66.546 C 131.810 67.232,131.617 67.416,132.307 67.420 C 132.678 67.422,132.901 67.308,132.901 67.116 C 132.901 66.947,133.199 66.744,133.564 66.663 C 133.929 66.583,134.276 66.391,134.335 66.235 C 134.395 66.080,134.768 65.892,135.164 65.818 C 135.561 65.743,135.944 65.528,136.016 65.340 C 136.108 65.100,136.341 65.026,136.793 65.092 C 137.380 65.178,137.478 65.116,137.421 64.692 C 137.411 64.616,137.532 64.472,137.691 64.371 C 137.911 64.232,137.888 64.187,137.595 64.185 C 137.383 64.183,137.154 64.327,137.085 64.506 M228.849 64.338 C 229.028 64.406,229.251 64.593,229.346 64.753 C 229.441 64.914,229.660 65.046,229.833 65.046 C 230.006 65.046,230.510 65.240,230.954 65.478 C 231.397 65.716,231.886 65.910,232.040 65.910 C 232.194 65.910,232.375 66.054,232.443 66.229 C 232.510 66.404,232.896 66.609,233.300 66.685 C 233.717 66.763,234.036 66.953,234.036 67.123 C 234.036 67.288,234.243 67.423,234.497 67.423 C 234.939 67.423,234.935 67.405,234.409 66.991 C 234.107 66.753,233.720 66.559,233.549 66.559 C 233.378 66.559,233.062 66.364,232.847 66.126 C 232.632 65.889,232.325 65.694,232.165 65.694 C 232.004 65.694,231.510 65.500,231.067 65.262 C 230.623 65.024,230.148 64.830,230.010 64.830 C 229.873 64.830,229.704 64.684,229.636 64.506 C 229.567 64.327,229.289 64.189,229.018 64.199 C 228.693 64.210,228.635 64.257,228.849 64.338 M131.021 67.723 C 130.926 67.888,130.654 68.071,130.416 68.130 C 130.082 68.213,130.117 68.243,130.570 68.262 C 130.953 68.279,131.237 68.137,131.388 67.855 C 131.652 67.363,131.301 67.236,131.021 67.723 M235.270 67.855 C 235.353 68.176,235.558 68.284,236.060 68.274 C 236.682 68.261,236.697 68.244,236.251 68.065 C 235.983 67.957,235.764 67.769,235.764 67.646 C 235.764 67.523,235.628 67.423,235.461 67.423 C 235.263 67.423,235.196 67.574,235.270 67.855 M129.444 68.612 C 129.444 68.828,129.227 68.936,128.788 68.936 C 128.406 68.936,128.082 69.070,128.009 69.260 C 127.941 69.438,127.714 69.584,127.505 69.584 C 127.296 69.584,126.877 69.778,126.575 70.016 C 126.273 70.254,125.875 70.448,125.690 70.448 C 125.506 70.448,125.181 70.632,124.968 70.857 C 124.755 71.082,124.387 71.314,124.149 71.372 C 123.795 71.460,123.815 71.483,124.263 71.504 C 124.567 71.518,124.974 71.337,125.179 71.097 C 125.383 70.859,125.723 70.665,125.936 70.665 C 126.148 70.665,126.489 70.470,126.692 70.232 C 126.896 69.995,127.306 69.800,127.605 69.800 C 127.933 69.800,128.147 69.677,128.147 69.489 C 128.147 69.286,128.427 69.155,128.956 69.111 C 129.692 69.050,130.359 68.287,129.675 68.287 C 129.548 68.287,129.444 68.433,129.444 68.612 M236.899 68.558 C 236.948 68.706,237.172 68.863,237.396 68.907 C 237.749 68.975,237.765 68.938,237.514 68.636 C 237.171 68.223,236.771 68.172,236.899 68.558 M238.408 69.368 C 238.556 69.606,238.882 69.800,239.132 69.800 C 239.383 69.800,239.763 69.995,239.978 70.232 C 240.194 70.470,240.594 70.665,240.869 70.665 C 241.147 70.665,241.470 70.856,241.599 71.097 C 241.744 71.368,242.049 71.528,242.417 71.526 L 243.004 71.523 242.464 71.210 C 242.166 71.038,241.680 70.786,241.383 70.650 C 241.086 70.514,240.697 70.315,240.519 70.208 C 240.340 70.101,239.951 69.893,239.654 69.747 C 239.357 69.601,238.985 69.358,238.828 69.208 C 238.383 68.783,238.108 68.888,238.408 69.368 M123.317 71.846 C 123.153 72.275,123.252 72.482,123.566 72.362 C 123.677 72.320,123.700 72.098,123.618 71.869 C 123.476 71.473,123.461 71.472,123.317 71.846 M243.159 71.853 C 243.204 72.154,243.420 72.307,243.870 72.358 C 244.226 72.398,244.594 72.568,244.689 72.736 C 244.784 72.904,245.027 73.043,245.230 73.045 C 245.432 73.047,245.743 73.151,245.921 73.276 C 246.159 73.443,245.906 73.480,244.976 73.415 C 243.881 73.338,243.777 73.361,244.220 73.585 C 245.274 74.119,246.100 74.148,246.256 73.655 C 246.409 73.174,246.081 72.835,245.458 72.829 C 245.263 72.827,245.047 72.680,244.979 72.501 C 244.910 72.323,244.594 72.177,244.277 72.177 C 243.959 72.177,243.564 72.007,243.397 71.799 C 243.113 71.444,243.099 71.448,243.159 71.853 M121.164 72.641 C 119.391 73.538,121.914 74.339,123.825 73.487 L 124.365 73.246 123.825 73.361 C 122.064 73.739,120.800 73.751,120.800 73.390 C 120.800 73.191,120.970 72.972,121.178 72.904 C 122.116 72.598,122.846 72.187,122.420 72.206 C 122.183 72.216,121.617 72.412,121.164 72.641 M137.655 121.080 L 137.763 168.882 137.818 121.243 C 137.848 95.042,137.799 73.531,137.710 73.442 C 137.620 73.352,137.596 94.790,137.655 121.080 M228.595 74.039 C 228.700 74.938,228.772 74.960,228.894 74.130 C 228.946 73.777,228.881 73.449,228.749 73.399 C 228.593 73.339,228.540 73.563,228.595 74.039 M228.739 121.988 C 228.739 147.780,228.764 158.299,228.795 145.364 C 228.826 132.429,228.826 111.327,228.795 98.470 C 228.764 85.614,228.739 96.197,228.739 121.988 M137.711 169.854 L 137.763 170.394 182.820 170.453 C 230.537 170.516,228.859 170.540,228.832 169.796 C 228.821 169.472,228.775 169.420,228.692 169.638 C 228.624 169.816,228.461 170.034,228.331 170.121 C 228.200 170.208,207.839 170.281,183.083 170.283 L 138.074 170.286 137.867 169.800 C 137.663 169.321,137.660 169.322,137.711 169.854 " stroke="none" fill="#fca45c" fill-rule="evenodd"></path><path id="path3" d="M39.783 7.975 C 39.564 8.194,39.250 8.427,39.087 8.492 C 38.924 8.557,39.109 8.618,39.499 8.627 C 39.941 8.638,40.255 8.522,40.332 8.321 C 40.400 8.143,40.543 8.052,40.649 8.118 C 40.756 8.183,40.844 8.110,40.846 7.954 C 40.849 7.723,40.882 7.723,41.027 7.952 C 41.172 8.179,41.252 8.176,41.454 7.933 C 41.862 7.440,40.278 7.480,39.783 7.975 M66.451 7.725 C 130.998 7.868,324.797 7.869,324.797 7.726 C 324.797 7.636,261.126 7.587,183.306 7.617 C 105.486 7.646,52.901 7.694,66.451 7.725 M325.014 7.741 C 325.014 7.848,325.257 7.910,325.554 7.877 C 325.936 7.835,326.095 7.923,326.097 8.177 C 326.100 8.482,326.131 8.488,326.302 8.218 C 326.478 7.939,326.518 7.940,326.628 8.226 C 326.809 8.698,327.655 8.722,327.558 8.253 C 327.516 8.052,327.316 7.901,327.112 7.918 C 326.909 7.934,326.742 7.880,326.742 7.798 C 326.742 7.715,326.353 7.625,325.878 7.597 C 325.402 7.569,325.014 7.634,325.014 7.741 M37.218 8.774 C 36.848 9.170,36.886 9.292,37.378 9.292 C 37.686 9.292,37.766 9.193,37.666 8.933 C 37.573 8.692,37.611 8.624,37.779 8.728 C 37.917 8.814,38.201 8.787,38.410 8.670 C 38.723 8.493,38.675 8.459,38.136 8.473 C 37.777 8.483,37.364 8.618,37.218 8.774 M328.147 8.644 C 328.747 8.902,329.335 8.902,329.335 8.644 C 329.335 8.525,328.971 8.435,328.525 8.443 C 327.875 8.455,327.800 8.495,328.147 8.644 M329.552 8.860 C 329.552 9.263,329.609 9.321,329.811 9.119 C 330.013 8.918,330.013 8.802,329.811 8.601 C 329.609 8.399,329.552 8.457,329.552 8.860 M35.062 9.435 C 34.700 9.582,34.716 10.157,35.083 10.157 C 35.243 10.157,35.549 9.962,35.764 9.724 C 36.175 9.270,35.827 9.127,35.062 9.435 M330.632 9.431 C 330.810 9.501,331.087 9.717,331.246 9.911 C 331.508 10.231,331.528 10.224,331.460 9.833 C 331.411 9.554,331.193 9.383,330.846 9.352 C 330.550 9.325,330.454 9.361,330.632 9.431 M33.423 10.301 C 33.125 10.599,33.290 10.978,33.675 10.877 C 33.893 10.820,34.072 10.635,34.072 10.465 C 34.072 10.147,33.677 10.047,33.423 10.301 M332.577 10.295 C 332.577 10.561,333.337 11.007,333.766 10.993 C 334.113 10.981,334.092 10.947,333.657 10.818 C 333.360 10.731,333.142 10.546,333.171 10.408 C 333.201 10.270,333.079 10.157,332.901 10.157 C 332.723 10.157,332.577 10.219,332.577 10.295 M32.102 11.094 C 31.504 11.531,31.757 11.977,32.362 11.552 C 32.841 11.217,33.012 10.805,32.672 10.805 C 32.576 10.805,32.320 10.935,32.102 11.094 M334.306 11.129 C 334.306 11.307,334.403 11.453,334.522 11.453 C 334.641 11.453,334.738 11.307,334.738 11.129 C 334.738 10.951,334.641 10.805,334.522 10.805 C 334.403 10.805,334.306 10.951,334.306 11.129 M335.704 12.112 C 335.498 12.445,335.780 12.659,336.057 12.382 C 336.212 12.226,336.216 12.106,336.068 12.014 C 335.947 11.940,335.783 11.984,335.704 12.112 M29.972 12.978 C 29.902 13.245,29.950 13.392,30.090 13.345 C 30.363 13.254,30.514 12.534,30.260 12.534 C 30.166 12.534,30.036 12.734,29.972 12.978 M336.416 12.922 C 336.346 13.187,336.441 13.321,336.715 13.341 C 336.977 13.361,337.115 13.227,337.115 12.953 C 337.115 12.425,336.552 12.401,336.416 12.922 M29.063 13.668 C 28.831 13.936,28.660 14.217,28.684 14.294 C 28.707 14.371,28.548 14.388,28.329 14.330 C 28.035 14.254,27.871 14.400,27.699 14.893 C 27.572 15.259,27.316 15.559,27.132 15.559 C 26.947 15.559,26.808 15.632,26.822 15.721 C 26.892 16.167,26.765 16.424,26.472 16.424 C 26.294 16.424,26.148 16.566,26.148 16.741 C 26.148 17.182,26.748 16.917,26.911 16.403 C 26.983 16.177,27.230 15.890,27.459 15.767 C 27.689 15.645,27.877 15.425,27.877 15.279 C 27.877 15.133,28.080 14.917,28.328 14.800 C 28.575 14.683,28.974 14.271,29.213 13.884 C 29.720 13.065,29.661 12.980,29.063 13.668 M337.489 13.633 C 337.554 13.880,337.839 14.189,338.123 14.318 C 338.406 14.447,338.697 14.788,338.770 15.076 C 338.868 15.467,338.948 15.527,339.085 15.310 C 339.187 15.149,339.271 15.125,339.273 15.255 C 339.275 15.386,339.519 15.774,339.816 16.120 C 340.348 16.738,340.356 16.740,340.356 16.241 C 340.356 15.916,340.202 15.694,339.924 15.622 C 339.687 15.560,339.492 15.374,339.492 15.210 C 339.492 15.045,339.346 14.911,339.168 14.911 C 338.868 14.911,338.743 14.643,338.827 14.182 C 338.846 14.078,338.709 14.052,338.522 14.124 C 338.291 14.212,338.116 14.082,337.978 13.718 C 337.731 13.070,337.324 12.998,337.489 13.633 M340.496 16.745 C 340.418 16.947,340.537 17.284,340.779 17.544 L 341.197 17.993 341.136 17.416 C 341.056 16.665,340.678 16.269,340.496 16.745 M25.347 17.650 C 25.271 17.849,25.031 18.189,24.814 18.406 C 24.597 18.623,24.419 18.995,24.419 19.233 C 24.419 19.486,24.275 19.665,24.072 19.665 C 23.847 19.665,23.770 19.783,23.853 20.000 C 23.927 20.193,23.891 20.279,23.768 20.204 C 23.645 20.128,23.555 20.352,23.555 20.733 C 23.555 21.176,23.448 21.394,23.231 21.394 C 23.051 21.394,22.907 21.586,22.907 21.826 C 22.907 22.840,23.749 22.075,23.850 20.969 C 23.866 20.794,24.092 20.422,24.352 20.141 C 24.612 19.860,24.772 19.493,24.707 19.324 C 24.635 19.137,24.725 19.017,24.936 19.017 C 25.127 19.017,25.284 18.914,25.284 18.788 C 25.284 18.662,25.162 18.630,25.014 18.717 C 24.865 18.804,24.925 18.668,25.147 18.414 C 25.369 18.161,25.648 17.974,25.767 17.999 C 25.886 18.024,26.011 17.874,26.046 17.666 C 26.128 17.181,25.533 17.167,25.347 17.650 M341.794 18.744 C 341.928 19.282,342.343 19.881,342.581 19.881 C 342.632 19.881,342.660 19.662,342.641 19.395 C 342.623 19.127,342.490 18.933,342.347 18.963 C 342.203 18.992,342.085 18.822,342.085 18.585 C 342.085 18.347,341.986 18.152,341.865 18.152 C 341.733 18.152,341.704 18.389,341.794 18.744 M342.943 20.950 C 343.286 21.589,343.487 21.624,343.521 21.049 C 343.544 20.669,343.440 20.529,343.135 20.529 C 342.789 20.529,342.757 20.601,342.943 20.950 M343.382 22.040 C 343.382 22.160,343.470 22.258,343.578 22.258 C 343.686 22.258,343.723 22.453,343.661 22.690 C 343.599 22.928,343.653 23.123,343.783 23.123 C 343.912 23.123,344.109 23.439,344.221 23.825 L 344.423 24.527 344.443 23.717 C 344.458 23.088,344.378 22.903,344.084 22.889 C 343.858 22.879,343.815 22.829,343.976 22.763 C 344.361 22.608,344.311 22.403,343.814 22.092 C 343.558 21.932,343.382 21.911,343.382 22.040 M22.186 23.699 C 21.955 23.930,22.020 24.813,22.281 24.974 C 22.442 25.073,22.473 24.971,22.375 24.661 C 22.274 24.344,22.334 24.161,22.567 24.071 C 22.754 23.999,22.907 23.854,22.907 23.748 C 22.907 23.523,22.397 23.488,22.186 23.699 M344.307 25.085 C 344.326 25.333,344.501 25.621,344.696 25.725 C 345.038 25.908,345.081 25.730,344.922 24.797 C 344.855 24.403,344.276 24.674,344.307 25.085 M21.718 26.580 C 21.791 26.699,21.752 26.796,21.629 26.796 C 21.507 26.796,21.463 26.942,21.532 27.120 C 21.600 27.299,21.549 27.445,21.417 27.445 C 21.285 27.445,21.178 27.736,21.178 28.093 C 21.178 28.449,21.279 28.741,21.403 28.741 C 21.527 28.741,21.613 28.620,21.594 28.471 C 21.525 27.938,21.613 27.637,21.805 27.756 C 21.912 27.822,21.990 27.536,21.978 27.120 C 21.966 26.704,21.873 26.364,21.770 26.364 C 21.668 26.364,21.645 26.461,21.718 26.580 M21.214 29.876 C 21.184 30.724,21.243 30.902,21.556 30.899 C 21.806 30.897,21.848 30.841,21.680 30.734 C 21.540 30.645,21.387 30.185,21.338 29.711 C 21.251 28.857,21.250 28.859,21.214 29.876 M224.311 61.156 C 224.311 61.275,224.530 61.371,224.797 61.369 C 225.191 61.366,225.222 61.326,224.959 61.156 C 224.541 60.885,224.311 60.885,224.311 61.156 M127.769 73.419 C 129.403 73.456,132.077 73.456,133.712 73.419 C 135.346 73.383,134.009 73.352,130.740 73.352 C 127.472 73.352,126.135 73.383,127.769 73.419 M227.659 121.772 C 227.659 147.563,227.684 158.082,227.715 145.147 C 227.746 132.213,227.746 111.110,227.715 98.254 C 227.684 85.397,227.659 95.981,227.659 121.772 M160.417 171.097 C 172.995 171.128,193.514 171.127,206.014 171.097 C 218.514 171.066,208.223 171.041,183.144 171.041 C 158.066 171.041,147.839 171.066,160.417 171.097 M21.178 191.356 C 21.178 191.631,12.757 191.889,8.698 191.738 C 8.549 191.733,8.428 191.912,8.428 192.136 C 8.428 192.361,8.531 192.545,8.657 192.545 C 8.783 192.545,8.832 192.458,8.766 192.351 C 8.524 191.960,9.451 191.896,15.361 191.896 C 21.250 191.896,21.394 191.886,21.394 191.464 C 21.394 191.226,21.345 191.032,21.286 191.032 C 21.226 191.032,21.178 191.178,21.178 191.356 M368.083 191.841 C 386.257 191.886,390.916 191.953,390.793 192.167 C 390.708 192.315,390.718 192.364,390.815 192.276 C 390.913 192.188,391.123 192.224,391.282 192.357 C 391.509 192.545,391.572 192.499,391.572 192.145 L 391.572 191.692 368.395 191.738 L 345.219 191.783 368.083 191.841 M8.497 208.860 C 8.542 209.292,8.701 209.292,199.463 209.292 L 390.384 209.293 199.530 209.238 C 18.001 209.187,8.670 209.166,8.564 208.806 C 8.478 208.512,8.463 208.524,8.497 208.860 M391.356 208.953 C 391.356 209.064,391.137 209.196,390.870 209.248 C 390.453 209.328,390.468 209.346,390.978 209.371 C 391.375 209.391,391.572 209.293,391.572 209.076 C 391.572 208.898,391.524 208.752,391.464 208.752 C 391.405 208.752,391.356 208.843,391.356 208.953 " stroke="none" fill="#fc8424" fill-rule="evenodd"></path><path id="path4" d="M182.583 40.440 C 182.040 40.922,182.099 40.919,183.111 40.414 C 183.657 40.141,183.748 40.146,183.923 40.458 C 184.031 40.651,184.402 40.871,184.748 40.947 C 185.094 41.023,185.431 41.225,185.497 41.396 C 185.562 41.567,185.789 41.708,186.001 41.709 C 186.213 41.709,186.677 41.903,187.034 42.139 C 187.391 42.376,187.856 42.569,188.067 42.570 C 188.279 42.571,188.508 42.717,188.577 42.896 C 188.645 43.074,188.850 43.220,189.031 43.220 C 189.254 43.220,189.183 43.080,188.812 42.788 C 188.510 42.550,188.115 42.355,187.934 42.355 C 187.753 42.355,187.472 42.222,187.310 42.060 C 187.147 41.897,186.775 41.689,186.484 41.598 C 186.192 41.506,185.722 41.251,185.438 41.029 C 185.155 40.808,184.802 40.627,184.654 40.627 C 184.507 40.627,184.265 40.481,184.117 40.303 C 183.741 39.850,183.192 39.899,182.583 40.440 M180.119 41.680 C 178.192 42.682,177.413 43.220,177.887 43.220 C 178.079 43.220,178.288 43.083,178.352 42.916 C 178.416 42.749,178.760 42.548,179.117 42.470 C 179.473 42.392,179.881 42.188,180.022 42.017 C 180.164 41.847,180.462 41.707,180.686 41.707 C 180.909 41.707,181.286 41.513,181.524 41.275 C 182.103 40.695,181.898 40.754,180.119 41.680 M176.631 43.544 C 176.563 43.722,176.336 43.868,176.127 43.868 C 175.918 43.868,175.500 44.063,175.198 44.300 C 174.895 44.538,174.508 44.733,174.338 44.733 C 174.167 44.733,173.851 44.927,173.636 45.165 C 173.421 45.402,173.022 45.597,172.751 45.597 C 172.479 45.597,172.196 45.696,172.121 45.816 C 172.047 45.937,171.676 46.183,171.298 46.362 C 169.860 47.046,169.481 47.319,169.968 47.323 C 170.209 47.324,170.573 47.131,170.776 46.894 C 170.980 46.656,171.330 46.461,171.554 46.461 C 171.779 46.461,172.083 46.316,172.231 46.137 C 172.379 45.959,172.728 45.813,173.006 45.813 C 173.291 45.813,173.614 45.624,173.744 45.381 C 173.871 45.143,174.193 44.949,174.460 44.949 C 174.726 44.949,175.111 44.754,175.315 44.516 C 175.518 44.279,175.865 44.084,176.085 44.084 C 176.306 44.084,176.662 43.890,176.877 43.652 C 177.111 43.394,177.165 43.220,177.012 43.220 C 176.871 43.220,176.700 43.366,176.631 43.544 M189.951 43.652 C 190.225 43.890,190.568 44.084,190.712 44.084 C 190.856 44.084,191.221 44.279,191.523 44.516 C 191.825 44.754,192.212 44.949,192.383 44.949 C 192.554 44.949,192.870 45.143,193.085 45.381 C 193.300 45.619,193.707 45.813,193.989 45.813 C 194.272 45.813,194.559 45.959,194.627 46.137 C 194.696 46.316,194.969 46.461,195.235 46.461 C 195.501 46.461,195.895 46.656,196.110 46.894 C 196.325 47.131,196.674 47.326,196.885 47.326 C 197.095 47.326,197.425 47.483,197.618 47.676 C 197.810 47.868,198.020 47.973,198.084 47.909 C 198.148 47.845,197.973 47.661,197.696 47.500 C 197.418 47.340,196.996 47.088,196.759 46.941 C 196.318 46.669,195.718 46.379,195.138 46.156 C 194.959 46.088,194.619 45.919,194.381 45.780 C 193.430 45.226,193.275 45.144,192.613 44.840 C 192.235 44.665,191.869 44.432,191.801 44.320 C 191.732 44.209,191.393 44.055,191.047 43.980 C 190.702 43.904,190.366 43.702,190.300 43.531 C 190.235 43.360,190.017 43.220,189.817 43.220 C 189.521 43.220,189.545 43.300,189.951 43.652 M168.990 47.538 C 168.990 47.654,168.722 47.813,168.395 47.891 C 168.069 47.969,167.655 48.158,167.477 48.312 C 167.298 48.466,166.909 48.696,166.612 48.823 C 166.315 48.950,165.927 49.137,165.748 49.238 C 165.570 49.340,164.938 49.656,164.344 49.941 C 162.912 50.628,162.104 51.216,162.592 51.216 C 162.790 51.216,163.008 51.070,163.077 50.891 C 163.145 50.713,163.342 50.567,163.514 50.567 C 163.782 50.567,164.833 50.086,165.964 49.446 C 166.143 49.345,166.598 49.120,166.976 48.945 C 167.354 48.771,167.720 48.538,167.789 48.426 C 167.858 48.315,168.197 48.161,168.542 48.086 C 169.124 47.958,169.670 47.326,169.199 47.326 C 169.084 47.326,168.990 47.421,168.990 47.538 M198.757 48.197 C 199.025 48.304,199.244 48.485,199.244 48.598 C 199.244 48.711,199.529 48.867,199.877 48.943 C 200.225 49.020,200.626 49.222,200.768 49.393 C 200.909 49.563,201.201 49.703,201.416 49.703 C 201.630 49.703,201.963 49.860,202.156 50.053 C 202.348 50.245,202.554 50.354,202.614 50.295 C 202.799 50.109,202.042 49.487,201.632 49.487 C 201.417 49.487,201.120 49.341,200.972 49.163 C 200.824 48.984,200.521 48.838,200.298 48.838 C 200.075 48.838,199.697 48.644,199.460 48.406 C 199.222 48.169,198.857 47.980,198.649 47.988 C 198.360 47.998,198.385 48.047,198.757 48.197 M203.273 50.566 C 203.529 50.669,203.802 50.857,203.880 50.984 C 203.959 51.111,204.130 51.216,204.260 51.216 C 204.390 51.216,204.272 51.021,203.998 50.783 C 203.724 50.546,203.344 50.357,203.154 50.365 C 202.918 50.374,202.956 50.438,203.273 50.566 M161.525 51.447 C 161.446 51.574,161.173 51.762,160.918 51.865 C 160.471 52.046,160.470 52.053,160.892 52.066 C 161.133 52.074,161.497 51.885,161.700 51.648 C 161.904 51.410,161.980 51.216,161.869 51.216 C 161.758 51.216,161.604 51.320,161.525 51.447 M204.862 51.372 C 205.041 51.440,205.264 51.627,205.359 51.787 C 205.454 51.948,205.639 52.080,205.771 52.080 C 205.902 52.080,205.834 51.885,205.619 51.648 C 205.403 51.410,205.072 51.223,204.883 51.233 C 204.590 51.247,204.587 51.268,204.862 51.372 M159.776 52.404 C 159.707 52.582,159.480 52.728,159.271 52.728 C 159.062 52.728,158.644 52.923,158.342 53.160 C 158.040 53.398,157.586 53.593,157.334 53.593 C 157.081 53.593,156.819 53.739,156.750 53.917 C 156.682 54.095,156.455 54.241,156.246 54.241 C 156.037 54.241,155.634 54.421,155.351 54.641 C 155.067 54.861,154.689 55.096,154.511 55.164 C 154.245 55.265,154.252 55.290,154.550 55.304 C 154.749 55.314,155.053 55.180,155.226 55.008 C 155.398 54.836,155.790 54.632,156.097 54.555 C 156.403 54.478,156.767 54.278,156.906 54.112 C 157.044 53.945,157.325 53.809,157.530 53.809 C 157.735 53.809,158.127 53.614,158.401 53.377 C 158.675 53.139,159.064 52.944,159.265 52.944 C 159.466 52.944,159.806 52.750,160.022 52.512 C 160.255 52.254,160.309 52.080,160.156 52.080 C 160.015 52.080,159.844 52.226,159.776 52.404 M206.630 52.364 C 206.787 52.520,207.563 52.954,208.356 53.327 C 209.148 53.701,209.859 54.108,209.935 54.232 C 210.012 54.356,210.264 54.457,210.496 54.457 C 210.728 54.457,211.084 54.652,211.287 54.889 C 211.491 55.127,211.882 55.321,212.156 55.321 C 212.431 55.321,212.708 55.459,212.772 55.626 C 212.837 55.794,213.142 55.994,213.451 56.072 C 213.760 56.149,214.252 56.401,214.545 56.631 C 214.838 56.862,215.247 57.050,215.454 57.050 C 215.661 57.050,215.951 57.196,216.099 57.374 C 216.247 57.553,216.539 57.699,216.748 57.699 C 216.956 57.699,217.244 57.839,217.387 58.012 C 217.530 58.184,217.979 58.434,218.386 58.569 C 218.792 58.703,219.125 58.902,219.125 59.012 C 219.125 59.122,219.237 59.211,219.374 59.211 C 219.516 59.211,219.455 59.024,219.233 58.779 C 219.018 58.541,218.702 58.347,218.531 58.347 C 218.360 58.347,217.973 58.152,217.671 57.915 C 217.369 57.677,216.952 57.482,216.745 57.482 C 216.538 57.482,216.247 57.337,216.099 57.158 C 215.951 56.980,215.710 56.834,215.562 56.834 C 215.414 56.834,215.046 56.640,214.744 56.402 C 214.442 56.164,214.046 55.970,213.866 55.970 C 213.685 55.970,213.409 55.843,213.252 55.688 C 213.094 55.533,212.334 55.090,211.561 54.703 C 210.789 54.317,209.670 53.721,209.076 53.379 C 208.482 53.037,207.822 52.751,207.611 52.743 C 207.399 52.735,207.170 52.582,207.101 52.404 C 207.033 52.226,206.835 52.080,206.661 52.080 C 206.398 52.080,206.393 52.129,206.630 52.364 M152.026 56.402 C 151.811 56.640,151.741 56.834,151.872 56.834 C 152.002 56.834,152.173 56.730,152.251 56.603 C 152.330 56.476,152.603 56.287,152.858 56.184 C 153.321 55.998,153.321 55.997,152.870 55.983 C 152.621 55.976,152.241 56.164,152.026 56.402 M150.621 57.158 C 150.473 57.337,150.183 57.482,149.976 57.482 C 149.769 57.482,149.367 57.653,149.084 57.861 C 148.800 58.069,148.082 58.482,147.488 58.779 C 146.020 59.513,145.260 60.076,145.737 60.076 C 145.935 60.076,146.153 59.930,146.221 59.751 C 146.290 59.573,146.517 59.427,146.725 59.427 C 146.934 59.427,147.337 59.254,147.621 59.043 C 147.904 58.832,148.890 58.283,149.811 57.825 C 150.732 57.366,151.486 56.956,151.486 56.913 C 151.486 56.696,150.856 56.875,150.621 57.158 M220.151 59.434 C 220.419 59.542,220.637 59.730,220.637 59.853 C 220.637 59.975,220.782 60.076,220.960 60.076 C 221.229 60.076,221.221 60.005,220.912 59.643 C 220.708 59.406,220.344 59.217,220.103 59.225 C 219.695 59.238,219.698 59.252,220.151 59.434 M144.492 60.400 C 144.424 60.578,144.177 60.724,143.944 60.724 C 143.711 60.724,143.374 60.871,143.194 61.051 C 143.014 61.231,142.576 61.436,142.220 61.507 C 141.864 61.579,141.524 61.763,141.465 61.916 C 141.406 62.070,141.053 62.263,140.681 62.345 C 140.308 62.427,139.951 62.630,139.887 62.797 C 139.823 62.964,139.586 63.101,139.361 63.101 C 139.136 63.101,138.757 63.296,138.520 63.533 C 138.282 63.771,137.908 63.965,137.689 63.965 C 137.470 63.965,137.114 64.160,136.899 64.398 C 136.684 64.635,136.610 64.830,136.734 64.830 C 136.859 64.830,137.017 64.684,137.085 64.506 C 137.154 64.327,137.434 64.182,137.709 64.182 C 137.983 64.182,138.374 63.987,138.578 63.749 C 138.781 63.512,139.103 63.317,139.294 63.317 C 139.484 63.317,139.887 63.123,140.190 62.885 C 140.492 62.647,140.910 62.453,141.119 62.453 C 141.328 62.453,141.551 62.316,141.615 62.149 C 141.680 61.982,142.024 61.781,142.380 61.703 C 142.736 61.625,143.144 61.421,143.285 61.250 C 143.427 61.080,143.753 60.940,144.009 60.940 C 144.265 60.940,144.641 60.746,144.845 60.508 C 145.130 60.174,145.146 60.076,144.916 60.076 C 144.751 60.076,144.561 60.222,144.492 60.400 M221.718 60.232 C 221.896 60.300,222.120 60.487,222.215 60.648 C 222.310 60.808,222.553 60.943,222.755 60.947 C 222.957 60.951,223.311 61.097,223.542 61.271 C 224.172 61.748,224.451 61.653,223.879 61.156 C 223.605 60.918,223.213 60.724,223.008 60.724 C 222.803 60.724,222.514 60.578,222.366 60.400 C 222.218 60.222,221.939 60.083,221.746 60.093 C 221.451 60.107,221.446 60.130,221.718 60.232 M225.018 62.021 C 225.321 62.258,225.687 62.453,225.833 62.453 C 225.979 62.453,225.851 62.258,225.549 62.021 C 225.247 61.783,224.880 61.588,224.734 61.588 C 224.588 61.588,224.716 61.783,225.018 62.021 M226.580 62.885 C 226.795 63.123,227.152 63.317,227.372 63.317 C 227.593 63.317,227.940 63.512,228.143 63.749 C 228.347 63.987,228.738 64.182,229.012 64.182 C 229.287 64.182,229.567 64.327,229.636 64.506 C 229.704 64.684,229.873 64.830,230.010 64.830 C 230.148 64.830,230.623 65.024,231.067 65.262 C 231.510 65.500,232.004 65.694,232.165 65.694 C 232.325 65.694,232.632 65.889,232.847 66.126 C 233.062 66.364,233.378 66.559,233.549 66.559 C 233.720 66.559,234.107 66.753,234.409 66.991 C 234.711 67.229,235.129 67.423,235.338 67.423 C 235.547 67.423,235.771 67.560,235.835 67.727 C 235.899 67.894,236.243 68.095,236.599 68.173 C 236.956 68.251,237.363 68.455,237.505 68.625 C 237.646 68.796,237.938 68.936,238.153 68.936 C 238.367 68.936,238.689 69.082,238.867 69.260 C 239.045 69.438,239.271 69.581,239.369 69.577 C 239.721 69.563,238.517 68.720,238.144 68.720 C 237.934 68.720,237.641 68.574,237.493 68.395 C 237.345 68.217,237.103 68.071,236.956 68.071 C 236.808 68.071,236.440 67.877,236.138 67.639 C 235.835 67.401,235.432 67.207,235.242 67.207 C 235.052 67.207,234.729 67.012,234.526 66.775 C 234.322 66.537,233.956 66.343,233.712 66.343 C 233.467 66.343,233.101 66.148,232.897 65.910 C 232.694 65.673,232.344 65.478,232.119 65.478 C 231.895 65.478,231.590 65.332,231.442 65.154 C 231.295 64.976,231.006 64.830,230.801 64.830 C 230.596 64.830,230.204 64.635,229.930 64.398 C 229.656 64.160,229.291 63.965,229.120 63.965 C 228.949 63.965,228.562 63.771,228.260 63.533 C 227.958 63.296,227.590 63.101,227.442 63.101 C 227.294 63.101,227.052 62.955,226.904 62.777 C 226.756 62.599,226.535 62.453,226.412 62.453 C 226.290 62.453,226.365 62.647,226.580 62.885 M135.278 65.154 C 135.130 65.332,134.826 65.478,134.601 65.478 C 134.377 65.478,134.027 65.673,133.823 65.910 C 133.620 66.148,133.295 66.343,133.102 66.343 C 132.909 66.343,132.527 66.537,132.253 66.775 C 131.979 67.012,131.581 67.207,131.368 67.207 C 131.156 67.207,130.916 67.314,130.835 67.445 C 130.754 67.576,130.383 67.825,130.011 67.998 C 129.640 68.172,129.092 68.452,128.795 68.621 L 128.255 68.929 128.849 68.933 C 129.227 68.935,129.444 68.821,129.444 68.621 C 129.444 68.433,129.747 68.250,130.200 68.165 C 130.616 68.087,130.956 67.944,130.956 67.846 C 130.956 67.749,131.661 67.318,132.523 66.889 C 135.519 65.397,136.444 64.830,135.881 64.830 C 135.697 64.830,135.426 64.976,135.278 65.154 M126.280 69.908 C 126.212 70.086,125.985 70.232,125.776 70.232 C 125.567 70.232,125.156 70.421,124.864 70.651 C 124.571 70.881,124.063 71.137,123.736 71.219 C 123.409 71.301,123.091 71.502,123.028 71.665 C 122.965 71.828,122.694 71.961,122.424 71.961 C 122.154 71.961,121.804 72.131,121.647 72.339 C 121.403 72.661,121.406 72.677,121.664 72.447 C 121.830 72.299,122.217 72.177,122.524 72.177 C 122.830 72.177,123.247 71.983,123.451 71.745 C 123.654 71.507,123.995 71.313,124.207 71.313 C 124.419 71.313,124.760 71.118,124.963 70.881 C 125.167 70.643,125.489 70.448,125.680 70.448 C 125.870 70.448,126.273 70.254,126.575 70.016 C 126.992 69.689,127.038 69.584,126.765 69.584 C 126.567 69.584,126.349 69.730,126.280 69.908 M240.145 70.016 C 240.448 70.254,240.816 70.448,240.964 70.448 C 241.112 70.448,241.009 70.254,240.735 70.016 C 240.461 69.778,240.092 69.584,239.916 69.584 C 239.710 69.584,239.791 69.738,240.145 70.016 M241.840 70.835 C 242.124 71.048,242.623 71.338,242.950 71.479 C 243.277 71.620,243.544 71.835,243.544 71.956 C 243.544 72.078,243.839 72.177,244.199 72.177 C 244.582 72.177,244.906 72.312,244.979 72.501 C 245.047 72.680,245.252 72.825,245.433 72.825 C 245.656 72.825,245.585 72.685,245.214 72.393 C 244.912 72.156,244.521 71.961,244.347 71.961 C 244.172 71.961,243.908 71.815,243.760 71.637 C 243.612 71.459,243.370 71.313,243.223 71.313 C 243.075 71.313,242.707 71.118,242.405 70.881 C 242.102 70.643,241.736 70.448,241.590 70.448 C 241.444 70.448,241.557 70.622,241.840 70.835 M120.269 72.900 C 119.267 73.632,119.996 74.341,121.722 74.313 C 123.588 74.282,124.592 74.093,124.461 73.798 C 124.357 73.563,124.215 73.564,122.047 73.805 C 120.446 73.984,119.805 73.555,120.698 72.902 C 120.918 72.741,121.001 72.609,120.882 72.609 C 120.763 72.609,120.487 72.740,120.269 72.900 M246.106 73.018 C 247.321 73.788,245.572 74.266,244.152 73.553 C 243.578 73.264,242.896 73.347,242.896 73.705 C 242.896 74.382,246.407 74.642,246.659 73.984 C 246.860 73.461,246.594 72.825,246.177 72.829 C 245.890 72.831,245.875 72.872,246.106 73.018 M136.930 73.636 C 137.032 73.844,137.137 95.505,137.164 121.772 C 137.211 167.392,137.239 170.502,137.605 170.502 C 137.775 170.502,137.723 73.981,137.554 73.528 C 137.498 73.379,137.293 73.258,137.099 73.258 C 136.835 73.258,136.792 73.354,136.930 73.636 M228.797 73.401 C 228.946 73.461,229.018 73.591,228.958 73.689 C 228.897 73.788,228.847 95.554,228.846 122.060 C 228.845 154.417,228.773 170.288,228.625 170.361 C 228.505 170.421,228.530 170.445,228.682 170.414 C 228.904 170.369,228.968 161.072,229.012 122.458 C 229.066 74.839,229.069 74.556,229.498 74.288 C 230.246 73.821,229.887 73.227,228.886 73.275 C 228.659 73.285,228.626 73.332,228.797 73.401 M230.486 73.667 C 229.576 74.024,230.946 74.122,236.592 74.105 C 241.659 74.089,242.277 74.051,241.707 73.790 C 240.993 73.463,231.278 73.357,230.486 73.667 " stroke="none" fill="#fc9c50" fill-rule="evenodd"></path></g></svg>